<?xml version="1.0" encoding="utf-8"?>
<!-- Generator: Adobe Illustrator 23.0.1, SVG Export Plug-In . SVG Version: 6.00 Build 0)  -->
<svg version="1.1" id="Layer_1" xmlns="http://www.w3.org/2000/svg" xmlns:xlink="http://www.w3.org/1999/xlink" x="0px" y="0px"
	 viewBox="0 0 400 400" style="enable-background:new 0 0 400 400;" xml:space="preserve">
<style type="text/css">
	.st0{fill:none;stroke:#010101;stroke-width:4;stroke-miterlimit:10;}
	.st1{fill:#020202;}
	.st2{fill:#FFFFFF;}
</style>
<path class="st0" d="M356.34,66.69c0,0-2.43,47.4-62.76,94.34c0,0-10.83-3.63-9.1-7.91c0,0-5.09,4.38-12.3-5.49"/>
<g>
	<g>
		<path class="st1" d="M296.04,108.21c2.47,2.59,3.26,6.18,2.4,9.4c-0.45,1.7-1.37,3.3-2.74,4.61c-3.96,3.78-10.23,3.62-14.01-0.34
			c-3.78-3.96-3.62-10.23,0.34-14.01C285.99,104.1,292.27,104.25,296.04,108.21z"/>
		<circle class="st1" cx="279.79" cy="99.1" r="7.9"/>
		<circle class="st1" cx="269.84" cy="91" r="7.9"/>
		
			<ellipse transform="matrix(0.7239 -0.6899 0.6899 0.7239 25.8525 242.6937)" class="st1" cx="316.15" cy="89.05" rx="9.77" ry="9.91"/>
		
			<ellipse transform="matrix(0.7239 -0.6899 0.6899 0.7239 28.4023 229.3114)" class="st1" cx="300.7" cy="79.17" rx="7.78" ry="7.9"/>
		
			<ellipse transform="matrix(0.7239 -0.6899 0.6899 0.7239 33.4083 221.1991)" class="st1" cx="293.07" cy="68.86" rx="7.78" ry="7.9"/>
		<polyline class="st1" points="291.5,69.51 269.42,90.55 254.43,52.71 		"/>
		
			<rect x="278.26" y="74.81" transform="matrix(0.7239 -0.6899 0.6899 0.7239 17.5402 227.2548)" class="st1" width="28.89" height="33.81"/>
		<path class="st1" d="M301.53,120.4c0,0,0.29-8.59-3.09-2.78l-0.55-4.35l-1.81-3.77l15.91-14.48l3.38,2.5l2.22,1.29
			c0,0-2.83,3.63,4.77,1.75S301.53,120.4,301.53,120.4z"/>
	</g>
	<g>
		<path class="st2" d="M297.2,113.39c-0.18,2.75-1.78,5.3-4.03,6.82c-1.19,0.81-2.56,1.33-4,1.46c-4.17,0.37-7.33-2.75-7.06-6.96
			c0.27-4.21,3.87-7.92,8.03-8.28C294.31,106.07,297.47,109.18,297.2,113.39z"/>
		<circle class="st2" cx="280.16" cy="98.89" r="5.37"/>
		<circle class="st2" cx="270.54" cy="90.6" r="5.43"/>
		
			<ellipse transform="matrix(0.7239 -0.6899 0.6899 0.7239 25.1656 242.2934)" class="st2" cx="315.31" cy="89.7" rx="7.49" ry="6.84"/>
		
			<ellipse transform="matrix(0.7239 -0.6899 0.6899 0.7239 28.1826 229.211)" class="st2" cx="300.47" cy="79.39" rx="5.29" ry="5.36"/>
		
			<ellipse transform="matrix(0.7239 -0.6899 0.6899 0.7239 33.0647 221.0421)" class="st2" cx="292.7" cy="69.21" rx="5.15" ry="5.22"/>
		<polyline class="st2" points="294.43,72.08 272.18,92.72 261.73,59.97 		"/>
		<polygon class="st2" points="314.4,97.19 297.22,113.96 271.41,86.88 288.59,70.1 		"/>
		<path class="st2" d="M303.08,117.77c0,0,0.23-8.57-6.32-2.22l0.35-5.17l-1.5-2.97l13.45-12.36l2.91,0.76l4.19,0.91
			c0,0-3.85,7.93,3.29,5.79C325.65,100.64,303.08,117.77,303.08,117.77z"/>
	</g>
</g>
<path class="st0" d="M292.64,128.78c-0.49,0.81,8.43-7.83,13.33-12.83c0,0,34.04-26.83,45.59-47.01c0,0,2.24-3.57,4.78-2.25
	c0,0,23.42-30.78,20.34-58.45c0,0-1.3-9.5,2.74-1.1c0,0,23.36,41.6,8.72,63.01c0,0-9.8,20.97-37,45.25l-57.56,45.64
	c0,0,2.51,3.34,7.29,2.76c0,0,9.28,7.31,0.93,8.15c0,0-5.81,3.08-20.45-3.5c0,0-10.19,2.08-23.28,17.36c0,0-2.47,3.83-5.56,2.39
	L70.99,350.1c0,0-0.72,6.53-11.13,10.03l-18.8,18.68c0,0,1.44,5.55-5.53,5.11l-7.88,7.28c0,0,1.71,6.78-5.62,5.15
	c0,0-4.93,2.98-7.82-1.43c0,0-4.11-5.81,0.44-7.53c0,0-2.73-7.37,6.12-6.13l7.6-6.61c0,0-1.56-5.28,5.58-5.25l19.23-15.39
	c0,0,0.45-8.31,10.7-10.53l184.7-162.69c0,0-1.79-3.35,1.7-4.92c0,0,11.49-7.73,19.8-17.85c0,0-9.44-12.15-6.62-16.51
	c0,0,2.8-6.36,5.38,0.07c0,0,0.29,4.9,3.44,6.08l20.7-19.22"/>
</svg>
