<?xml version="1.0" encoding="utf-8"?>
<!-- Generator: Adobe Illustrator 23.0.1, SVG Export Plug-In . SVG Version: 6.00 Build 0)  -->
<svg version="1.1" id="Layer_1" xmlns="http://www.w3.org/2000/svg" xmlns:xlink="http://www.w3.org/1999/xlink" x="0px" y="0px"
	 viewBox="0 0 400 400" style="enable-background:new 0 0 400 400;" xml:space="preserve">
<style type="text/css">
	.st0{fill:#010101;}
	.st1{fill:none;stroke:#010101;stroke-width:5;stroke-miterlimit:10;}
</style>
<path class="st0" d="M238.72,29.26c0,0-26.74,34.18,10.3,45.69c0,0,29.39,10.91,43.16,20.38l-0.4,10.2c0,0-50.55-41.6-68.05,3.83
	c0,0-13.19,31.88,29.01,39.68c0,0,26.31,5.44,32.99,14.53l-1.55,9.16c0,0-14.78-13.62-31.32-13.02c0,0-29.13-1.56-27.21,25.17
	c0,0,0.48,27.81,17.98,29.01c0,0,7.43,1.26,15.7,0.78c0,0,6.92-0.98,13.32,8.35l-6.2,20.4c0,0-12.28,12.36-19.83,16.05
	c0,0-38.2,22.74-49.12,78.12c0,0-13.77-53.63-40.9-72.76c0,0-23.11-14.51-28.4-22.9l-6.04-19.37c0,0,4.11-8.31,14.77-7.95
	c0,0,33.89,7.46,33.53-35.06c0,0-3.87-35.33-49-13.22c0,0-10.02,6.9-11.53,3.27l-1.13-6.87c0,0,5.74-7.91,31.54-13.48
	c0,0,36.23-6.65,34.25-31.91c0,0-5.48-39.2-42.88-25.53c0,0-12.9,2.43-28.29,14.57l-0.2-9.71c0,0,4.04-7.91,36.49-19.06
	c0,0,36.05-9.71,25.8-32.81c0,0-3.75-13.02-7.72-15.14l40.43-8.5L238.72,29.26z"/>
<path class="st1" d="M197.51,391.87C71.07,238.33,94.16,43.42,94.16,43.42l0.22-6.38c-0.27-2.65,1.57-3.09,1.57-3.09l3.6-1.2
	c48.07-15.22,97.95-24.09,97.95-24.09s46.13,5.87,99.47,24.69l2.63,0.99c0,0,2.31-0.09,1.96,2.74c0,0,26.99,190.41-98.42,347.94
	l-5.64,7.21"/>
<polygon class="st0" points="203.28,389.21 197.69,396.43 191.54,388.75 197.41,390.95 "/>
<path class="st1" d="M291.4,45.31c0,0-46.41-17.44-93.15-24.18c0,0-64.36,11.78-91.6,23.73c0,0-30.55,159.66,90.85,333.95
	C197.51,378.81,304,250.55,291.4,45.31z"/>
<circle class="st0" cx="198.25" cy="15.07" r="3.18"/>
<circle class="st0" cx="295.37" cy="39.65" r="3.18"/>
<circle class="st0" cx="297.88" cy="101.86" r="3.18"/>
<circle class="st0" cx="290.69" cy="169.82" r="3.18"/>
<circle class="st0" cx="274.15" cy="238.74" r="3.18"/>
<circle class="st0" cx="121.68" cy="238.74" r="3.18"/>
<circle class="st0" cx="104.42" cy="168.98" r="3.18"/>
<circle class="st0" cx="97.59" cy="101.86" r="3.18"/>
<circle class="st0" cx="101.42" cy="40.24" r="3.18"/>
<circle class="st0" cx="148.17" cy="305.15" r="3.18"/>
<circle class="st0" cx="246.22" cy="308.33" r="3.18"/>
<circle class="st0" cx="197.41" cy="384.8" r="3.18"/>
</svg>
