<?xml version="1.0" encoding="utf-8"?>
<!-- Generator: Adobe Illustrator 23.0.1, SVG Export Plug-In . SVG Version: 6.00 Build 0)  -->
<svg version="1.1" id="Layer_1" xmlns="http://www.w3.org/2000/svg" xmlns:xlink="http://www.w3.org/1999/xlink" x="0px" y="0px"
	 viewBox="0 0 400 400" style="enable-background:new 0 0 400 400;" xml:space="preserve">
<style type="text/css">
	.st0{fill:#010101;}
	.st1{fill:none;stroke:#010101;stroke-width:5;stroke-miterlimit:10;}
</style>
<path class="st0" d="M125.55,119.56c0,0-65.84,45.14-58.2,114.9c0,0,9.74,93.77,105.04,98.09c0,0,18.69,2.65,26.95,10.7l0.04-43.31
	c0,0-77.77-2.92-92.76-67.66c0,0-0.62-77.9,40.4-88.19c0,0,34.9-13.3,36.85-43.55c0,0-4.98-42.13-36.28-31.33
	c0,0-25.97,6.53-36.81,22.99c0,0-8.92,9.93-21.36,11.82c0,0-24.83,13.78,1.2,10.93c0,0,17.12,2.34,25.1-1.69
	C115.72,113.26,130.95,109.49,125.55,119.56z"/>
<path class="st0" d="M277.58,121.23c0,0,63.66,46.5,54.41,116.07c0,0-11.91,93.51-105.79,95.82c0,0-18.54,2.26-26.86,10.13
	l0.25-43.31c0,0,77.46-1.27,93.82-65.66c0,0,2.55-77.85-37.55-89c0,0-34-14.03-35.18-44.3c0,0,5.95-42,36.47-30.55
	c0,0,25.39,7.07,35.65,23.76c0,0,8.53,10.12,20.72,12.27c0,0,24.09,14.3-1.45,10.9c0,0-16.9,1.98-24.66-2.22
	C287.41,115.14,272.52,111.05,277.58,121.23z"/>
<circle class="st1" cx="199.82" cy="200" r="193.39"/>
<circle class="st1" cx="199.82" cy="200" r="176.5"/>
<ellipse class="st0" cx="199.82" cy="200.45" rx="18.33" ry="25.66"/>
<polyline class="st1" points="199.82,23.5 199.82,22.32 199.82,6.61 "/>
<polyline class="st1" points="199.82,393.39 199.82,392.21 199.82,376.5 "/>
<polyline class="st1" points="246.77,388.34 246.38,387.23 241.17,372.4 "/>
<polyline class="st1" points="157.3,390.16 157.62,389.02 161.87,373.9 "/>
<polyline class="st1" points="240.69,8.75 240.33,9.88 235.57,24.93 "/>
<polyline class="st1" points="273.58,20.11 273.03,21.29 265.69,36.95 "/>
<polyline class="st1" points="305.72,37.29 304.89,38.29 293.9,51.64 "/>
<polyline class="st1" points="332.27,58.33 331.27,59.17 318.06,70.32 "/>
<polyline class="st1" points="351.49,78.18 350.49,79.02 337.28,90.18 "/>
<polyline class="st1" points="370.09,107.19 368.97,107.86 354.13,116.74 "/>
<polyline class="st1" points="393.58,200.81 392.28,200.76 375,200.08 "/>
<polyline class="st1" points="390.34,230.58 389.06,230.31 372.15,226.72 "/>
<polyline class="st1" points="383.7,261.69 382.48,261.23 366.3,255.15 "/>
<polyline class="st1" points="371.18,290.01 370.01,289.43 354.49,281.81 "/>
<polyline class="st1" points="353.47,316.33 352.44,315.53 338.82,304.88 "/>
<polyline class="st1" points="333.85,338.43 332.98,337.46 321.31,324.7 "/>
<polyline class="st1" points="311.03,357.79 310.29,356.72 300.41,342.52 "/>
<polyline class="st1" points="286.64,373.67 286.04,372.51 278.07,357.17 "/>
<polyline class="st1" points="391.99,173.75 390.7,173.9 373.51,175.82 "/>
<polyline class="st1" points="385.39,141.69 384.12,141.98 367.24,145.73 "/>
<polyline class="st1" points="25.01,200.37 23.7,200.31 6.43,199.63 "/>
<polyline class="st1" points="26.04,176.2 24.75,176 7.66,173.37 "/>
<polyline class="st1" points="32.29,148.05 31.03,147.71 14.35,143.16 "/>
<polyline class="st1" points="40.03,124.35 38.83,123.84 22.9,117.12 "/>
<polyline class="st1" points="52.54,104.22 51.47,103.48 37.26,93.63 "/>
<polyline class="st1" points="67.38,83.65 66.37,82.82 52.98,71.88 "/>
<polyline class="st1" points="84.5,66.61 83.63,65.64 72.13,52.73 "/>
<polyline class="st1" points="103.67,52 102.91,50.94 92.74,36.96 "/>
<polyline class="st1" points="121.56,41.01 120.91,39.89 112.23,24.93 "/>
<polyline class="st1" points="146.89,32.15 146.24,31.02 137.56,16.07 "/>
<polyline class="st1" points="25.01,223.82 23.71,223.8 6.42,223.64 "/>
<polyline class="st1" points="29.8,248.03 28.51,248.28 11.53,251.51 "/>
<polyline class="st1" points="38.65,273.02 37.41,273.42 20.94,278.66 "/>
<polyline class="st1" points="49.19,295.43 48.15,295.88 34.25,301.79 "/>
<polyline class="st1" points="65.83,317.01 64.79,317.6 51,325.45 "/>
<polyline class="st1" points="82,332.89 81.06,333.66 68.66,343.86 "/>
<polyline class="st1" points="104.36,349.34 103.46,350.28 91.47,362.74 "/>
<polyline class="st1" points="128.59,361.34 127.95,362.48 119.47,377.55 "/>
<polyline class="st1" points="165.04,8.29 165.33,9.47 169.28,25.11 "/>
<polyline class="st0" points="199.34,343.25 199.34,300.01 199.63,300.01 "/>
</svg>
