<?xml version="1.0" encoding="utf-8"?>
<!-- Generator: Adobe Illustrator 23.0.1, SVG Export Plug-In . SVG Version: 6.00 Build 0)  -->
<svg version="1.1" id="Layer_1" xmlns="http://www.w3.org/2000/svg" xmlns:xlink="http://www.w3.org/1999/xlink" x="0px" y="0px"
	 viewBox="0 0 400 400" style="enable-background:new 0 0 400 400;" xml:space="preserve">
<style type="text/css">
	.st0{fill:none;stroke:#010101;stroke-width:5;stroke-miterlimit:10;}
	.st1{fill:#010101;stroke:#010101;stroke-width:5;stroke-miterlimit:10;}
	.st2{fill:#FFFFFF;stroke:#010101;stroke-width:5;stroke-miterlimit:10;}
</style>
<path class="st0" d="M157.94,203.02C157.93,202.37,157.94,203.68,157.94,203.02c0-97.05,27.88-175.73,62.27-175.73
	s62.27,78.68,62.27,175.73s-27.88,175.73-62.27,175.73c-31.02,0-56.62-62.02-61.37-145.8"/>
<path class="st0" d="M120.46,189.83C122.35,86.44,159.4,2.85,214.44,2.85c59.96,0,91.32,90.55,91.32,197.64
	s-28.6,197.64-85.56,197.64c-44.37,0-85.51-64.32-96.66-150.37"/>
<path class="st1" d="M171.08,216.86c0,16.05-18.23,29.06-38.99,29.06S94.5,232.91,94.5,216.86s16.83-29.06,37.59-29.06
	S171.08,200.81,171.08,216.86z"/>
<ellipse class="st2" cx="127.72" cy="218.7" rx="21.68" ry="18.91"/>
<path class="st1" d="M269.6,37.04c0,0-20.35-15.28-49.4-9.74"/>
<path class="st1" d="M207.22,375.02c0,0,10.36,14.23,51.11,6.56"/>
</svg>
