<?xml version="1.0" encoding="utf-8"?>
<!-- Generator: Adobe Illustrator 23.0.1, SVG Export Plug-In . SVG Version: 6.00 Build 0)  -->
<svg version="1.1" id="Layer_1" xmlns="http://www.w3.org/2000/svg" xmlns:xlink="http://www.w3.org/1999/xlink" x="0px" y="0px"
	 viewBox="0 0 400 400" style="enable-background:new 0 0 400 400;" xml:space="preserve">
<style type="text/css">
	.st0{fill:none;stroke:#010101;stroke-width:5;stroke-miterlimit:10;}
	.st1{fill:#010101;}
	.st2{fill:none;stroke:#010101;stroke-width:4;stroke-miterlimit:10;}
</style>
<path class="st0" d="M302.93,272.91c0,0-53.47,5.2-62.7,20.81l-9.89,12.36c0,0-9.63,14.31-18.86,0l-15.87-14.83
	c0,0-8.5-16.28-76.09-22.79"/>
<path class="st0" d="M312.54,319.34c0,0-51.51,10.8-81.42,30.18c0,0-7.41,4.68-17.95,0c0,0-44.09-24.32-104.83-35.38"/>
<path class="st0" d="M120.69,135.29c0,0,66.33-22.76,88.38-63.6c0,0,5.92-9.1,12.16,0c0,0,13.53,40.32,72.06,68.16"/>
<path class="st0" d="M280.03,196.55c0,0-48.32-11.3-61.95-18.2"/>
<path class="st0" d="M218.08,178.35c0,0-53.82,16.9-78.4,18.2"/>
<circle class="st1" cx="139.68" cy="197.07" r="5.53"/>
<circle class="st1" cx="280.03" cy="196.55" r="5.53"/>
<path class="st0" d="M202.25,7.56c0,0-74.4,40.06-100.93,52.03c0,0-7.8,2.21-4.81,10.02c0,0,10.02,20.55,12.1,27.96
	c0,0-10.02,3.25-3.51,12.88l15.61,24.84c0,0-7.15,4.94-0.78,10.93c0,0,11.32,21.07,5.46,40.71c0,0-7.54,12.29-1.63,23.41
	c0,0,5.4,25.75,4.49,29.14l-10.93,21.85c0,0-2.47,5.98,2.6,6.89l-14.31,34.86c0,0-2.73,6.24,2.73,11.06l-9.1,19.51
	c0,0-2.86,10.41,0,16c0,0,0.39,6.37,7.28,6.5c0,0,26.14,1.3,38.11,9.49c0,0,32.78,17.3,57.75,26.14c0,0,13.92,7.41,28.62,0
	c0,0,36.94-15.09,63.21-25.1c0,0,10.93-7.54,28.48-7.8c0,0,3.9,0,2.86-5.59c0,0,0.91-13.4-5.33-15.35l-12.29-13.98
	c0,0,6.24-4.36,8.06-9.43c0,0,4.55-2.34-3.25-12.68l-12.29-24.91c0,0,9.49-11.84,1.82-21.72c0,0-8.32-11.32-9.89-20.16l1.95-23.02
	c0,0,1.3-9.23-1.69-18.34c0,0-14.57-34.99,2.99-41.62c0,0,7.67-3.64,1.04-9.63l-3.38-2.6c0,0,3.9-16.78,13.66-24.84
	c0,0,5.07-7.15-0.65-10.67l-2.86-0.65c0,0,4.42-18.73,12.23-27.96c0,0,1.56-6.63-6.37-10.02c0,0-72.98-47.96-86.24-58.14
	C223.06,7.56,215.64-0.76,202.25,7.56z"/>
<path class="st0" d="M303.44,103.68c0,0-55.41-21.07-80.51-58.14c0,0-7.67-16.91-21.33,0c0,0-39.67,40.06-93,52.03"/>
<line class="st0" x1="212.91" y1="3.88" x2="224.48" y2="394.19"/>
<path class="st2" d="M262.9,34.95c0,0-17.1,15.18-16.08,35.91"/>
<path class="st2" d="M290.7,53.43c0,0-19.48,15.02-17.61,35.37"/>
<path class="st2" d="M156.88,31.63c0,0,17.37,12.61,18.26,35.4"/>
<path class="st2" d="M126.73,47.2c0,0,18.75,10.2,19.59,36.85"/>
<path class="st2" d="M167.97,72.81c0,0,14.3,9.82,14.34,30.3"/>
<path class="st2" d="M141.55,86.31c0,0,13.27,12.59,15.33,32.35"/>
<path class="st2" d="M253.35,75.92c0,0-10.65,12.15-10.78,27.83"/>
<path class="st2" d="M274.88,89.83c0,0-14,17.71-10.93,32.69"/>
<path class="st2" d="M281.83,371.46c0,0-14.29-9.07-16.89-38.6"/>
<path class="st2" d="M246.77,340.91c0,0,0.94,18.35,14.89,38.51"/>
<path class="st2" d="M185.01,384.92c0,0,12.68-19.96,10.27-44"/>
<path class="st2" d="M169.79,330.75c0,0,3.04,21.27-12.55,41.28"/>
<path class="st2" d="M305.83,361.5c0,0-12.01-14.06-13.7-37.02"/>
<path class="st2" d="M127.87,359.17c0,0,8.51-14.52,10.35-38.3"/>
<path class="st2" d="M185.01,336.57c0,0,16.74-11.83,19.2-37.29"/>
<path class="st2" d="M157.23,326.48c0,0,20.79-14.23,21.65-46.81"/>
<path class="st2" d="M134.16,317.92c0,0,15.15-19.27,11.06-46.13"/>
<path class="st2" d="M255.85,336.88c0,0-16.37-10.04-19.51-38.31"/>
<path class="st2" d="M277.69,328.86c0,0-19.09-14.66-21.84-46.85"/>
<path class="st2" d="M281.83,276.05c3.75,36.19,17.15,44.82,17.15,44.82"/>
<path class="st2" d="M299.34,102c0,0-18.05,12.03-17.51,31.93"/>
<path class="st2" d="M114.35,96.16c0,0,21.23,11.99,19.8,33.76"/>
<path class="st2" d="M106.38,57.24c0,0,17.6,10.83,19.24,35.47"/>
<path class="st2" d="M264.94,278.5c0,0-23.94-16.78-22.37-47.8c0,0-13.98-23.6-10.4-47.02"/>
<path class="st2" d="M253.35,189.82c0,0-2.91,28.19,11.59,44.39c0,0,4.16,26.72,18.79,41.85"/>
<path class="st2" d="M269.2,193.92c0,0,1.08,34.44,14.54,45.75c0,0-2.61,19.57,12.26,34.08"/>
<path class="st2" d="M246.77,108.04c0,0-18.45,24.71-4.21,42.47c0,0-10.81,22.26-2.09,35.71"/>
<path class="st2" d="M264.94,123.24c0,0-13.01,17.13-4.62,33.12c0,0-11.32,20.55-1.56,34.66"/>
<path class="st2" d="M283.73,134.98c0,0-14.42,15.53-6.04,30.75c0,0-7.99,18.34,0,28.19"/>
<path class="st2" d="M179.86,103.74c0,0,11.79,23.94,3.4,46.57c0,0,14.11,21.17,6.37,36.24"/>
<path class="st2" d="M155.51,119.42c0,0,14.48,20.93,7.84,37.72c0,0,17.92,16.79,11.79,32.69"/>
<path class="st2" d="M128.69,132.22c0,0,19.16,17.5,12.87,34.28c0,0,14.06,15.43,12.18,28.3"/>
<path class="st2" d="M134.16,268.45c0,0,16.71-19.41,10.28-33.46c0,0,15.72-21.1,11.08-40.5"/>
<path class="st2" d="M153.9,273.43c0,0,15.57-16.46,9.45-40.49c0,0,18.32-23.57,13.06-43.12"/>
<path class="st2" d="M182.3,282.01c0,0,11.1-25.88,2.72-46.04c0,0,20.97-33.62,10.78-51.08"/>
</svg>
