<?xml version="1.0" encoding="utf-8"?>
<!-- Generator: Adobe Illustrator 23.0.1, SVG Export Plug-In . SVG Version: 6.00 Build 0)  -->
<svg version="1.1" id="moonlight_x5F_greatsword" xmlns="http://www.w3.org/2000/svg" xmlns:xlink="http://www.w3.org/1999/xlink"
	 x="0px" y="0px" viewBox="0 0 365.67 365.67" style="enable-background:new 0 0 365.67 365.67;" xml:space="preserve">
<style type="text/css">
	.st0{fill:none;stroke:#010101;stroke-width:4;stroke-miterlimit:10;}
	.st1{fill:#010101;}
	.st2{fill:#060404;}
</style>
<g id="sword_x5F_outline">
	<path class="st0" d="M341.05,15.16c0,0-42.62,18.09-72.95,46.28c-30.32,28.2-78.73,73.59-78.73,73.59s-13.38,12.68-39.25,37.04
		s-55.67,52.72-72.17,60.76l-2.8,3.11c0,0-1.15,1.78-3.54,0.12c0,0-2.61-2.27-3.57-0.82c0,0,0.24,0.83-3.32-2.21l-11.4-9.84
		c0,0-15.33-13.1-11.1,3.75l1.59,5.99c0,0,16.21,3.01,27.98,22.27l12.45,15.44c0,0,0.92,0.44-0.43,1.83l0.38,8.43l-36.15,38.25
		c0,0-1.23,1.61-8.1,4.46l-6.1,6.67l0.84,1.47l-4.12,4.59l-1.79-1.63l-6.72,5.81c0,0-6.43,5.51-0.39,13.2"/>
	<path class="st0" d="M341.05,15.16c0,0-15.7,43.92-42.09,75.84s-68.85,82.92-68.85,82.92s-11.88,14.12-34.68,41.37
		s-49.38,58.68-56.44,75.63l-2.95,2.98c0,0-1.7,1.25,0.09,3.54c0,0,2.41,2.48,1.03,3.53c0,0-0.84-0.2,2.4,3.19l10.48,10.82
		c0,0,13.95,14.55-3.1,11.32l-6.06-1.24c0,0-3.94-16.03-23.83-26.67l-16.12-11.55c0,0-0.49-0.9-1.8,0.54l-8.42,0.09L54.63,325.8
		c0,0-1.53,1.32-3.98,8.35l-6.3,6.48l-1.51-0.75l-4.34,4.39l1.73,1.7l-5.41,7.04c0,0-5.15,6.31-13.16,0.73"/>
	
		<ellipse transform="matrix(0.6896 -0.7242 0.7242 0.6896 -250.3077 125.1662)" class="st1" cx="20.85" cy="354.56" rx="1.46" ry="2.02"/>
	<polygon class="st1" points="338.53,14.1 345.5,10.5 342.25,17.6 339.35,17.13 	"/>
</g>
<g id="center">
	<g id="semi_x5F_circle">
		<path class="st1" d="M95.41,279.97c0,0-0.88-6.17-4.02-11.13c0,0,6.45-1.52,11.49,3.28"/>
		<path class="st1" d="M95.41,279.97c0,0,6.2,0.58,11.31,3.47c0,0,1.2-6.52-3.84-11.32"/>
	</g>
	<g id="middle_x5F_spear">
		<path class="st2" d="M80.73,245.89c0,0,13.02,12.4,21.95,14.91l57.8-56.35l34.18-28.71l-85.4,90.05c0,0-12.43,0.56-30.12-18.23"/>
		<path class="st2" d="M130.17,292.97c0,0-13.02-12.4-15.97-21.19l53.45-60.5l27-35.54l-85.4,90.05c0,0-0.31,12.1,19.32,28.84"/>
	</g>
	<g id="waves">
		<path class="st1" d="M118.83,282.46c0,0,14.9-10.47,11.58-21.33c0,0-4.5-3.97,0.55-12.41l17.31-18.49c0,0,30.56-8.81,48.03-38.54
			c0,0,24.22-55.21,69.11-80.11l-9.7,25.54c0,0-25.93,5.77-50.33,47.98c0,0-18.19,39.8-46.65,50.61l-19.67,7.62
			c0,0-4.1,5.8-2.36,13.93c0,0,5.03,12.18-13.18,29.67L118.83,282.46z"/>
		<path class="st1" d="M91.17,256.12c0,0,9.73-15.4,20.74-12.61c0,0,4.19,4.3,12.37-1.16l17.62-18.2c0,0,7.31-30.95,36.14-49.86
			c0,0,53.96-26.89,76.63-72.95l-25.03,10.94c0,0-4.49,26.18-45.46,52.62c0,0-38.86,20.12-48.27,49.07l-6.65,20.02
			c0,0-5.59,4.38-13.8,3.04c0,0-12.41-4.43-28.99,14.62L91.17,256.12z"/>
	</g>
</g>
</svg>
