<?xml version="1.0" encoding="utf-8"?>
<!-- Generator: Adobe Illustrator 23.0.1, SVG Export Plug-In . SVG Version: 6.00 Build 0)  -->
<svg version="1.1" id="Layer_1" xmlns="http://www.w3.org/2000/svg" xmlns:xlink="http://www.w3.org/1999/xlink" x="0px" y="0px"
	 viewBox="0 0 400 400" style="enable-background:new 0 0 400 400;" xml:space="preserve">
<style type="text/css">
	.st0{fill:none;stroke:#010101;stroke-width:5;stroke-miterlimit:10;}
	.st1{fill:#231F20;}
	.st2{fill:#010101;}
</style>
<path class="st0" d="M351.4,182.67c-3.11,92.45-30.97,208.82-88.93,213.58c-17.02,1.4-55.42,7.01-94.88-46.84
	c-29.38-40.1-75.56-114.73-111.16-134.58c0,0,77.41-71.19,106-138.15C201.05-13.79,269.36,5.61,284.31,5.61
	C312.81,5.61,355.37,64.76,351.4,182.67z"/>
<path class="st0" d="M304.16,197.36c-3.18,82.57-37.71,160.38-52.01,160.38c0,0-18.6-34.4,1.59-71.72
	c9.02-16.68,29.64-47.24,46.57-48.88l1.49-10.83c-49.52-31.33-53.75-95.64-53.89-130.32c-0.09-23.56,16.99-63.78,21.3-63.78
	C278,32.21,307.24,117.23,304.16,197.36z"/>
<path class="st0" d="M269.23,32.21c0,0,20.64-34.88,60.14,16.3"/>
<path class="st0" d="M252.15,357.74c0,0,9.72,46.56,52.23,10.98"/>
<path class="st0" d="M278.27,5.16c0,0-94,72.31-13.02,212.05c0,0,13.1,12.7,0,20.25c0,0-78.21,100.83-2.78,158.8"/>
<circle class="st0" cx="164.87" cy="213.9" r="14.7"/>
<circle class="st1" cx="141.15" cy="176.76" r="11.44"/>
<circle class="st1" cx="145.16" cy="250.33" r="11.44"/>
<line class="st0" x1="179.56" y1="214.22" x2="242.75" y2="220.76"/>
<path class="st0" d="M206.33,197.34c0,0-15.57,7.99-3.65,19.27c0,0-15.54,15.65-1.2,22.12"/>
<path class="st0" d="M235.31,6.45c0,0-44.29,32.11-73.27,98.01c0,0-10.32,27-78.6,109.57c0,0,57.79,65.11,75.94,102.82
	c0,0,34.77,56.19,55.64,73.55"/>
<path class="st0" d="M219.24,20.61c0,0-30.6,78.3-46.88,99.34c0,0-12.31,33.74,13.1,16.28c0,0,15.48-15.37,23.03,5.02
	c0,0,8.47,20.79,31.63,19"/>
<path class="st0" d="M224.78,393.87c0,0-31.41-72.07-48.11-91.44c0,0-12.63-31.06,13.45-14.98c0,0,15.89,14.15,23.63-4.62
	c0,0,8.69-19.13,32.46-17.49"/>
<g>
	<g>
		<path class="st2" d="M179.57,47.75c0.66,2.59,1.98,8.36,5.44,8.63c4.27,0.34,4.18-5.54,4.56-8.28c-1.39,0.37-2.79,0.74-4.18,1.1
			c0.41,0.63,0.82,1.26,1.23,1.9c0.54,1.8,2.82,2.44,4.18,1.1c6.29-6.17,11.33-12.82,16.43-19.94c2.63-3.67,6.31-6.47,9.68-9.43
			c2.97-2.62,6.83-5.09,8.65-8.7c0.96-1.91-0.63-4.26-2.82-3.67c-4.77,1.28-9.36,2.77-12.88,6.39c-4.31,4.43-7.97,9.68-11.86,14.48
			c1.42,0.59,2.85,1.18,4.27,1.77c-0.24-2.58,0.01-4.63,1.17-7c1.4-2.86-2.76-5.38-4.32-2.52c-2.82,5.18-8.11,7.82-12.42,11.57
			c-2.72,2.36-6.9,6.58-5.79,10.57c0.22,0.8,0.91,1.57,1.75,1.75c3.28,0.67,4.86-1.46,6.99-3.77c3.06-3.3,5.92-6.54,10.06-8.51
			c-1.22-0.5-2.45-1-3.67-1.49c0.9,5.66-6.66,8.89-10.24,11.88c1.39,0.37,2.79,0.74,4.18,1.1c-0.85-2.33,2.47-4.88,4-6.03
			c-1.22-0.94-2.45-1.88-3.67-2.82c-0.52,0.96-1.05,1.92-1.57,2.89c-2.01,2.48,1.51,6.04,3.54,3.54c1.33-1.64,2.17-3.1,2.86-5.09
			c0.67-1.95-1.93-4.14-3.67-2.82c-3.5,2.63-8.04,6.89-6.3,11.67c0.68,1.85,2.68,2.36,4.18,1.1c5.63-4.69,12.89-8.23,11.53-16.74
			c-0.28-1.73-2.38-2.11-3.67-1.49c-2.66,1.26-4.88,2.93-7,4.98c-0.62,0.6-5.77,6.88-6.2,6.79c0.58,0.58,1.16,1.16,1.75,1.75
			c-0.81-2.91,7.91-8.34,9.59-9.62c3.23-2.46,6.15-5.05,8.11-8.66c-1.44-0.84-2.88-1.68-4.32-2.52c-1.54,3.16-2.18,6.01-1.86,9.53
			c0.17,1.9,2.77,3.62,4.27,1.77c3.34-4.13,6.64-8.31,10.04-12.39c3.44-4.14,7.38-5.83,12.5-7.2c-0.94-1.22-1.88-2.45-2.82-3.67
			c-1.83,3.62-6.33,6.33-9.34,8.98c-2.83,2.49-5.77,4.87-8.07,7.88c-5.39,7.05-10.19,13.92-16.58,20.2c1.39,0.37,2.79,0.74,4.18,1.1
			c-0.52-1.72-1.2-2.89-2.51-4.1c-1.22-1.14-3.9-0.88-4.18,1.1c-0.08,0.6-0.26,4.73-0.67,4.99c0.84,0,1.68,0,2.52,0
			c-1.31-0.63-1.85-3.93-2.21-5.35C183.6,43.3,178.77,44.62,179.57,47.75L179.57,47.75z"/>
	</g>
</g>
<g>
	<g>
		<path class="st2" d="M180.41,47.58c-2.66,2.14-4.11,5.69-3.69,9.07c0.17,1.34,1.03,2.5,2.5,2.5c1.22,0,2.67-1.15,2.5-2.5
			c-0.28-2.26,0.45-4.11,2.23-5.54c1.05-0.85,0.88-2.65,0-3.54C182.91,46.54,181.47,46.74,180.41,47.58L180.41,47.58z"/>
	</g>
</g>
<g>
	<g>
		<path class="st2" d="M180.71,50.86c-2.93,2.45-6.61,6.06-4.55,10.02c0.39,0.76,1.32,1.26,2.16,1.24c3.18-0.08,5.68-3.18,7.77-5.27
			c-1.39-0.81-2.79-1.62-4.18-2.43c-0.31,1.98-0.63,3.96-0.94,5.93c-0.5,3.14,3.74,4.42,4.82,1.33c0.59-1.69,1.04-3.3,1.41-5.05
			c0.29-1.35-0.39-2.66-1.75-3.08c-2.38-0.74-3.77,0.63-4.67,2.73c-1.81,4.22-2.56,8.14-7.17,10.24c1.25,0.72,2.51,1.44,3.76,2.16
			c-0.07-3.92,1.06-6.33,2.86-9.64c1-1.84,1.59-3.29,1.53-5.42c-0.04-1.45-1.6-3.06-3.16-2.41c-3.55,1.47-4.78,5.49-6.55,8.71
			c-2.73,4.98-5.4,10.01-7.81,15.16c-2.11,4.51-4.05,9.12-5.65,13.84c-1.11,3.26-3.31,7.23-0.68,10.14
			c0.56,0.62,1.64,0.93,2.43,0.64c2.06-0.73,3.18-2.1,4.07-4.06c0.58-1.28,0.75-2.68,1.27-3.97c0.84-2.11,2.35-3.69,3.53-5.59
			c1.47-2.36,2.48-4.97,3.77-7.42c1.61-3.07,4.19-4.71,6.02-7.39c1.98-2.9-0.02-7.1-3.83-6.06c-4.82,1.33-9.19,7.94-10.67,12.33
			c-1.03,3.06,3.8,4.37,4.82,1.33c0.71-2.11,4.56-8.73,7.52-8.76c-0.72-0.41-1.44-0.83-2.16-1.24c-0.96-1.41-7.2,9.71-7.84,11.01
			c-1.29,2.63-2.98,4.79-4.49,7.27c-0.95,1.56-1.96,7.24-3.34,7.74c0.81,0.21,1.62,0.43,2.43,0.64c-0.33-0.37,3.18-8.66,3.49-9.47
			c1.53-3.98,3.3-7.85,5.18-11.68c1.58-3.22,3.26-6.4,4.97-9.56c0.75-1.38,3.42-8.19,4.85-8.78c-1.05-0.8-2.11-1.61-3.16-2.41
			c0.07,2.67-2.52,5.3-3.38,7.81c-0.81,2.37-1.05,4.77-1.01,7.26c0.04,2.03,2.06,2.93,3.76,2.16c2.43-1.11,4.34-2.74,5.85-4.94
			c0.9-1.31,4.38-6.83,2.14-7.53c-0.58-1.03-1.16-2.05-1.75-3.08c-0.37,1.75-0.83,3.36-1.41,5.05c1.61,0.44,3.21,0.89,4.82,1.33
			c0.31-1.98,0.63-3.96,0.94-5.93c0.37-2.33-2.27-4.34-4.18-2.43c-0.76,0.76-3.11,3.78-4.24,3.81c0.72,0.41,1.44,0.83,2.16,1.24
			c-0.29-0.56,3.33-3.59,3.77-3.96C186.72,52.33,183.17,48.81,180.71,50.86L180.71,50.86z"/>
	</g>
</g>
<g>
	<g>
		<path class="st2" d="M156.36,113.17c0.84-4.7,7.05-11.3,5.5-16.22c-1.31-4.15-6.49-2.76-8.85-0.51c-2.19,2.09-3.14,5.23-4.64,7.79
			c-1.64,2.81-3.58,5.42-5.49,8.04c-3.47,4.8-8.52,10.73-8.35,16.98c0.06,2.32,2.62,3.1,4.27,1.77c9.2-7.45,12.79-18.86,18.7-28.7
			c-1.52-0.2-3.05-0.4-4.57-0.6c1.56,4.56-1.55,10.89-3.59,14.86c-1.94,3.78-4.33,7.31-6.71,10.82c-2.38,3.5-4.8,6.98-6.86,10.68
			c-1.97,3.54-3.33,10.23-7.84,11.23c1.05,0.8,2.11,1.61,3.16,2.41c-0.11-8.58,8.27-18.87,13.45-25.2c-1.39-0.37-2.79-0.74-4.18-1.1
			c1.18,4.84-5.38,11.83-9.32,13.4c1.05,0.8,2.11,1.61,3.16,2.41c0.24-3.84,1.4-7.11,3.49-10.33c-1.44-0.84-2.88-1.68-4.32-2.52
			c-5.98,10.1-15.5,17.53-19.78,28.69c-0.88,2.31,2.61,4.3,4.18,2.43c4.2-4.98,8.18-10.43,12.94-14.88
			c-1.39-0.37-2.79-0.74-4.18-1.1c1.36,3.28-2.07,8.06-3.79,10.63c-2.06,3.07-4.54,5.65-7.34,8.04c1.39,0.37,2.79,0.74,4.18,1.1
			c-0.75-3.42,4.02-7.39,6.41-9.18c2.55-1.9,0.06-6.25-2.52-4.32c-4.56,3.41-10.08,8.58-8.71,14.82c0.43,1.97,2.84,2.24,4.18,1.1
			c5.42-4.62,15.7-15.61,12.42-23.54c-0.71-1.72-2.68-2.5-4.18-1.1c-4.76,4.45-8.75,9.9-12.94,14.88c1.39,0.81,2.79,1.62,4.18,2.43
			c4.06-10.61,13.57-17.86,19.28-27.5c1.65-2.79-2.57-5.21-4.32-2.52c-2.58,3.96-3.88,8.14-4.17,12.85c-0.09,1.5,1.69,3,3.16,2.41
			c6.85-2.74,14.71-11.72,12.81-19.55c-0.42-1.71-2.98-2.57-4.18-1.1c-6.22,7.6-15.04,18.4-14.91,28.73
			c0.02,1.69,1.58,2.76,3.16,2.41c4.8-1.06,6.67-4.85,8.55-9c2.46-5.41,5.8-10.3,9.13-15.2c5.08-7.48,14.12-19.85,10.8-29.53
			c-0.69-2-3.42-2.51-4.57-0.6c-5.68,9.46-9.08,20.53-17.92,27.69c1.42,0.59,2.85,1.18,4.27,1.77c-0.11-4.17,3.49-8.57,5.76-11.82
			c2.33-3.32,4.85-6.52,6.96-9.99c0.97-1.59,1.75-3.24,2.6-4.89c1.47-2.86,3.08-5.59,0.75-0.75c-1.61,3.35-3.42,6.33-4.08,10.04
			C150.98,114.98,155.8,116.34,156.36,113.17L156.36,113.17z"/>
	</g>
</g>
<g>
	<g>
		<path class="st2" d="M133,145.83c3.22,0,3.22-5,0-5C129.78,140.83,129.78,145.83,133,145.83L133,145.83z"/>
	</g>
</g>
<g>
	<g>
		<path class="st2" d="M112.85,156.57c-2.63,3.63-6.18,6.4-8.67,10.16c-2.74,4.14-4.72,9.29-9.95,10.74
			c0.94,1.22,1.88,2.45,2.82,3.67c2.27-3.88,5.59-6.69,9.24-9.27c1.12-0.79,3.24-2.85,4.63-2.91c0.98-0.71,1.09-0.48,0.33,0.69
			c-0.61,0.62-1.27,1.19-1.98,1.69c1.42,0.59,2.85,1.18,4.27,1.77c-0.21-1.04-0.19-2.07,0.03-3.1c0.55-0.89,0.44-1.44-0.34-1.65
			c1.52-0.2,3.05-0.4,4.57-0.6c-0.04-0.16-0.08-0.31-0.12-0.47c0.88-2.44-2.49-4.08-4.18-2.43c-1.96,1.92-6.16,2.91-6.86,5.87
			c-0.42,1.77,0.41,3.69,2.15,4.35c3.52,1.33,5.87-3.54,3.09-5.81c-3.44-2.81-7.58,1.84-6.94,5.43c0.93,5.3,6.56,2.61,7.74-0.95
			c0.5-1.51-0.84-3.23-2.41-3.16c-3.47,0.14-7.08,2.37-5.99,6.29c0.23,0.82,0.9,1.54,1.75,1.75c2.15,0.54,4.21-0.65,4.13-3.03
			c-0.05-1.38-1.11-2.45-2.5-2.5c-3.57-0.12-6.52,4.12-2.9,6.58c2.78,1.88,5.93-0.82,4.96-3.93c-0.36-1.15-1.27-1.72-2.41-1.84
			c-4.77-0.5-7.05,6.15-2.28,8.01c0.81,0.31,1.85-0.06,2.43-0.64c0.17-0.17,0.34-0.34,0.51-0.51c0.58-0.59,0.95-1.62,0.64-2.43
			c-0.08-0.21-0.16-0.41-0.23-0.62c-0.39-1.02-1.24-1.86-2.41-1.84c-3.65,0.09-5.98,1.84-5.33,5.65c0.15,0.87,0.97,1.48,1.75,1.75
			c2.08,0.7,4.2-0.26,4.57-2.51c0.34-2.07-1.64-3.99-3.67-2.82c-2,1.15-2.81,2.53-2.75,4.85c0.03,1.44,1.12,2.38,2.5,2.5
			c2.09,0.19,3.46-0.65,4.45-2.46c0.93-1.7-0.25-3.69-2.16-3.76c-3.61-0.14-5.99,1.74-7.19,5.05c-0.72,1.98,1.93,4.08,3.67,2.82
			c2.32-1.67,4.35-5.77,0.66-7.34c-1.1-0.47-2.11-0.42-3.03,0.39c-1.98,1.74-2.76,5.22-1.78,7.68c0.45,1.13,1.2,1.72,2.41,1.84
			c0.27,0.03,0.55,0.05,0.82,0.08c0.91,0.09,1.68-0.56,2.16-1.24c1.24-1.74,0.97-3.28-0.25-5c-1.11-1.56-4.16-1.72-4.57,0.6
			c-0.47,2.69,0.29,4.77,2.72,6.13c1.31,0.73,3.36,0.14,3.67-1.49c0.44-2.33-0.31-4.57-2.95-4.97c-2.91-0.44-4.52,2.17-5.37,4.51
			c-0.99,2.72,3.15,4.3,4.57,1.93c1.58-2.64,0.82-5.68-1.94-7.13c-0.99-0.52-2.22-0.42-3.03,0.39c-2.74,2.76-2.36,8.38,2.65,7.9
			c4.33-0.42,5.14-5.96,2.31-8.6c-2.8-2.61-8.42-1.14-7.14,3.33c1.1,3.83,6.59,3.37,7.71-0.19c1.38-4.37-3.87-7.16-7.45-5.51
			c-3.43,1.58-4.01,7.13,0.36,7.82c3.96,0.63,6.63-4.82,3.12-7.24c-3.42-2.35-6.54,1.77-4.83,4.86c1.42,2.56,5.15,0.77,4.57-1.93
			c-0.82-3.81-6.31-4.64-8.11-1c-1.92,3.89,2.88,6.6,5.74,3.94c0.87-0.81,0.85-2.04,0.39-3.03c-1.83-3.98-6.8-2.16-8.1,1.37
			c-1.43,3.9,2.27,6.03,5.77,5.43c3.26-0.56,4.94-4.71,1.59-6.64c-3.17-1.83-7.29,1.47-7.17,4.79c0.11,3.21,3.96,5.36,6.6,3.11
			c3.08-2.63-0.09-6.68-3.34-6.62c-3.17,0.06-6.88,3.12-4.94,6.49c1.84,3.19,7.23,2.63,9.37,0.24c1.31-1.47,0.7-3.52-1.1-4.18
			c-3.5-1.27-6.95-0.36-9.36,2.47c-1.25,1.46-0.76,3.55,1.1,4.18c3.31,1.11,6.75,1.18,9.55-1.04c0.62-0.5,0.93-1.7,0.64-2.43
			c-2.18-5.52-10.73-4.22-13.44,0.18c-0.9,1.47,0.03,3.14,1.49,3.67c2.73,0.99,4.88,0.71,7.34-0.81c2-1.23,1.32-3.77-0.6-4.57
			c-3.53-1.48-9.26-0.9-11.01,3.1c-0.4,0.92-0.54,2.31,0.39,3.03c3.37,2.6,8.31,2.02,12.21,1.11c1.92-0.45,2.31-2.85,1.1-4.18
			c-3.13-3.43-12.68-0.86-9.83,4.48c2.52,4.72,13.18,2.97,13.68-2.38c0.11-1.18-0.87-2.02-1.84-2.41c-1.89-0.77-3.53,0.26-4.39,1.97
			c-1.25,2.47,1.84,5.1,3.93,3.03c1.18-1.17,1.82-2.28,2.35-3.84c-1.03,0.58-2.05,1.16-3.08,1.75c2.36,0.44,4.17-0.42,4.77-2.84
			c-1.39,0.37-2.79,0.74-4.18,1.1c0.11,0.1,0.23,0.19,0.34,0.29c0.88,0.74,2,0.96,3.03,0.39c0.51-0.28,1.9-0.82,0.34-0.63
			c-0.59-1.42-1.18-2.85-1.77-4.27c-1.74,1.85-3.51,3.69-5.32,5.48c-0.29,0.29-7.87,7.49-4.63,7.86c-0.83-0.83-1.67-1.67-2.5-2.5
			c-0.29,0.57-0.58,1.14-0.87,1.71c0.72,0.41,1.44,0.83,2.16,1.24c-0.11-0.19-0.22-0.37-0.33-0.56c0,0.84,0,1.68,0,2.52
			c-0.15-0.06-0.3-0.13-0.45-0.19c-0.58-0.58-1.16-1.16-1.75-1.75c-0.41,0.93-1.05,1.71-1.92,2.32c-2.39,2.18,1.13,5.64,3.54,3.54
			c0.98-0.95,2.12-1.48,3.42-1.58c-0.94-1.22-1.88-2.45-2.82-3.67c-0.51,0.5-1.03,1-1.54,1.5c1.05,0.8,2.11,1.61,3.16,2.41
			c0.26-0.5,0.51-1.01,0.77-1.51c-1.14-1.14-2.28-2.28-3.42-3.42c-1.44,2.29-3.12,4.1-5.23,5.78c1.42,0.59,2.85,1.18,4.27,1.77
			c0.32-0.5,0.64-1,0.96-1.49c-1.03-1.03-2.05-2.05-3.08-3.08c-0.57,2.09-1.46,3.29-3.12,4.6c1.31,0.17,2.62,0.34,3.93,0.51
			c-1.27-2.98,2.4-4.98,4.23-6.12c-1.25-0.72-2.51-1.44-3.76-2.16c-3.13,1.77-3.52,2.52-1.18,2.26c0.79-1.22,1.83-2.07,3.12-2.57
			c-0.72-0.41-1.44-0.83-2.16-1.24c-0.3-0.54,1.9-1.59,2.41-1.88c-1.25-0.72-2.51-1.44-3.76-2.16c0.53,0.82,1.07,1.65,1.6,2.47
			c-0.81-1.39-1.62-2.79-2.43-4.18c-0.37,0.21-0.74,0.43-1.11,0.64c1.14,1.14,2.28,2.28,3.42,3.42c0.26-0.77,0.67-1.45,1.22-2.05
			c1.77-2.34-1.94-4.88-3.93-3.03c-1.07,0.99-2.13,1.99-3.2,2.98c-2.03,1.89,0.73,5.66,3.03,3.93c0.63-0.48,1.27-0.96,1.9-1.44
			c-1.01-1.31-2.02-2.62-3.03-3.93c-1.23,1.18-2.44,2.24-3.81,3.27c1.01,1.31,2.02,2.62,3.03,3.93c0.46-0.5,0.92-1,1.38-1.51
			c2.2-2.4-1.1-5.62-3.54-3.54c-5.42,4.64-11.13,9.08-15.83,14.48c-1.29,1.48-0.72,3.51,1.1,4.18c3.74,1.38,9.56-0.1,10.19-4.7
			c0.16-1.16-0.12-2.16-1.15-2.82c-2.64-1.7-5.82-0.16-7.07,2.46c-0.64,1.35-0.21,3.33,1.49,3.67c3.55,0.71,6.47-0.87,7.4-4.46
			c0.49-1.91-1.22-3.49-3.08-3.08c-3.22,0.72-5.61,5.44-1.53,7.09c4.21,1.7,7.13-3.98,7.03-7.28c-0.08-2.53-3.3-3.33-4.66-1.26
			c-0.99,1.51-1.34,2.81-1.24,4.6c0.08,1.52,1.55,2.97,3.16,2.41c2.82-0.98,4.47-2.57,5.12-5.55c0.59-2.71-3.08-4.44-4.57-1.93
			c-0.98,1.66-1.12,2.97-0.75,4.85c0.35,1.78,3,2.5,4.18,1.1c1.62-1.92,2.36-3.66,2.16-6.2c-0.21-2.73-4.08-3.49-4.91-0.66
			c-0.48,1.64-0.63,2.99-0.44,4.7c0.33,2.88,3.81,3.31,4.91,0.66c0.73-1.76,0.92-3.13,0.71-5c-0.29-2.6-4.21-3.63-4.91-0.66
			c-0.67,2.86-1.58,8.3,2.75,8.74c3.5,0.36,4.96-3.46,3.08-5.98c-1.12-1.51-3.23-1.7-4.32,0c-2.57,4.01,1.02,9.53,5.17,5.71
			c-1.39-0.81-2.79-1.62-4.18-2.43c-0.32,1.29-0.72,2.52-0.73,3.86c-0.01,1.15,0.79,2.06,1.84,2.41c1.29,0.43,1.76-0.03,3.05-0.11
			c-0.8-0.61-1.61-1.22-2.41-1.84c0.13,0.87,0.37,1.72,0.71,2.53c0.21-0.81,0.43-1.62,0.64-2.43c-0.86,0.97-1.65,1.99-2.38,3.07
			c-0.41,0.72-0.83,1.44-1.24,2.16c0.33-0.13,0.66-0.27,0.99-0.4c-0.41-0.72-0.83-1.44-1.24-2.16c-0.17,0.58-0.6,0.76-1.28,0.55
			c0.72,0.41,1.44,0.83,2.16,1.24c-0.01,0.18-0.03,0.37-0.04,0.55c-0.58,0.58-1.16,1.16-1.75,1.75c0.19-0.08,0.39-0.16,0.58-0.24
			c-1.05-0.8-2.11-1.61-3.16-2.41c-0.08,0.37-0.15,0.74-0.23,1.11c1.39,0.37,2.79,0.74,4.18,1.1c-0.05,0.24-0.09,0.49-0.14,0.73
			c-1.44-0.84-2.88-1.68-4.32-2.52c0.08-0.09,0.16-0.18,0.24-0.27c0.81,0.21,1.62,0.43,2.43,0.64c0.58,0.19,1.16,0.37,1.74,0.56
			c-0.42-1.55-0.84-3.11-1.26-4.66c0.97-0.49,1.99-0.62,3.06-0.38c-0.72-1.25-1.44-2.51-2.16-3.76c-1.09,1.2-2.19,2.4-3.28,3.6
			c-0.72-1.25-1.44-2.51-2.16-3.76c-1.13,1.98-2.71,2.92-4.92,3.26c-3.17,0.49-1.82,5.31,1.33,4.82c3.55-0.55,6.14-2.46,7.91-5.56
			c0.9-1.58-0.23-3.86-2.16-3.76c-3.42,0.17-5.5,3.85-2.96,6.66c3.23,3.57,8.59,0.42,10.55-2.73c1.05-1.69-0.34-3.66-2.16-3.76
			c-4.18-0.23-12.28,2.99-8.03,8.53c2.54,3.32,9.01,1.53,8.35-3.02c-0.74-5.14-8.95-2.81-10.33,0.76c-2.21,5.73,6.55,5.46,9.48,3.43
			c1.85-1.29,1.42-4.87-1.26-4.66c-3.06,0.24-7.9,2.11-6.53,6.22c1.06,3.17,5.06,3.2,6.43,0.37c1.4-2.89-2.53-5.23-4.32-2.52
			c-0.72,1.09-0.86,1.92-0.37,3.12c0.64,1.57,2.82,2.69,4.18,1.1c1.25-1.46,1.82-2.67,1.69-4.64c-0.09-1.44-1.56-3.07-3.16-2.41
			c-4.29,1.75-2.4,7.48,2.19,6.5c4.03-0.87,6.92-7.27,1.6-8.45c-4.36-0.96-8.36,4.87-3.69,7.38c2.2,1.18,4.89-0.03,6.69-1.36
			c3.28-2.42,2.95-3.66,2.19-7.19c-0.22-1.01-1.37-1.9-2.41-1.84c0.11-0.01-1.73,0.28-1.72,0.29c0.61,0.8,1.22,1.61,1.84,2.41
			c0.13-0.85,0.32-1.69,0.55-2.53c0.61-2.47-2.34-4.12-4.18-2.43c0.89,0.11,1.79,0.23,2.68,0.34c-1.44,0-2.88,0-4.32,0
			c0.05-0.01,0.1-0.03,0.15-0.04c0.58-0.58,1.16-1.16,1.75-1.75c0.97-0.4,1.45-1.13,1.41-2.17c-1.64-0.22-3.27-0.44-4.91-0.66
			c0.33,1.32,0.16,2.54-0.53,3.67c1.64,0.22,3.27,0.44,4.91,0.66c-0.27-1.14-0.18-2.26,0.26-3.37c-1.64-0.22-3.27-0.44-4.91-0.66
			c-0.23,0.89-0.46,1.78-0.7,2.66c1.39,0.37,2.79,0.74,4.18,1.1c0.08-0.33,0.17-0.66,0.25-1c-1.52-0.64-3.05-1.28-4.57-1.93
			c-0.54,0.69-1.09,1.37-1.63,2.06c1.05,0.8,2.11,1.61,3.16,2.41c0.19-0.69,0.37-1.39,0.56-2.08c-1.55-0.42-3.11-0.84-4.66-1.26
			c0.04,0.86,0.07,1.72,0.11,2.57c0.21,0.81,0.43,1.62,0.64,2.43c0.03,0,0.05,0.01,0.08,0.01c-1.03-1.03-2.05-2.05-3.08-3.08
			c-0.42,0.32-0.83,0.64-1.25,0.97c0.5,1.22,1,2.45,1.49,3.67c0.08-0.22,0.15-0.45,0.23-0.67c-0.38-0.94-0.77-1.88-1.15-2.82
			c-1.15,1.67-2.5,2.07-4.04,1.21c0.37,1.39,0.74,2.79,1.1,4.18c4.7-5.4,10.41-9.84,15.83-14.48c-1.18-1.18-2.36-2.36-3.54-3.54
			c-0.46,0.5-0.92,1-1.38,1.51c-1.81,1.98,0.65,5.71,3.03,3.93c1.69-1.27,3.29-2.58,4.82-4.05c1.99-1.91-0.72-5.67-3.03-3.93
			c-0.63,0.48-1.27,0.96-1.9,1.44c1.01,1.31,2.02,2.62,3.03,3.93c1.07-0.99,2.13-1.99,3.2-2.98c-1.31-1.01-2.62-2.02-3.93-3.03
			c-0.56,0.59-0.96,1.28-1.22,2.05c-1.09,2.39,1.09,4.4,3.42,3.42c0.98-0.41,1.34-0.71,2.12-1.42c1.82-1.64-0.08-4.99-2.43-4.18
			c-3.1,1.07-7.24,5.3-2.94,8.09c3.97,2.57,7.48-2.23,7.67-5.74c0.11-1.95-2.19-3.05-3.76-2.16c-3.5,1.97-8.67,8.79-2.41,11.06
			c4.24,1.54,9.04-3.36,6.84-7.38c-0.38-0.69-1.33-1.34-2.16-1.24c-3.95,0.5-11.75,6.81-7.77,11.27c3.94,4.42,11.34-1.06,10.84-5.96
			c-0.18-1.78-2.02-3.25-3.76-2.16c-4.9,3.06-8.56,7.03-6.02,12.96c0.7,1.64,2.83,1.38,3.93,0.51c2.33-1.84,3.63-3.95,4.4-6.8
			c0.5-1.86-1.23-3.54-3.08-3.08c-3.04,0.77-4.88,3.14-4.63,6.31c0.18,2.28,2.55,3.14,4.27,1.77c2.45-1.95,4.34-4.14,6.01-6.79
			c1.3-2.07-1.33-4.82-3.42-3.42c-2.17,1.46-3.19,3.18-3.25,5.83c-0.03,1.53,1.64,2.96,3.16,2.41c2.18-0.79,3.42-1.68,4.53-3.79
			c1.06-2.01-0.68-4.09-2.82-3.67c-2.27,0.44-3.9,1.35-5.63,2.86c1.18,1.18,2.36,2.36,3.54,3.54c2.1-1.91,5.93-7.61,1.13-9.04
			c-3.29-0.98-6.27,2.78-4.54,5.68c0.42,0.71,1.29,1.3,2.16,1.24c3.74-0.29,5.58-3.22,5.87-6.71c0.12-1.45-1.25-2.36-2.5-2.5
			c-4.42-0.51-4.81,6.12-0.42,6.65c4.24,0.51,7.38-6.53,2.99-8.52c-4.26-1.93-8.59,4.59-4.83,7.53c1.77,1.38,3.8,0.8,5.49-0.35
			c3.82-2.6,7.11-6.76,10.26-10.1c1.33-1.41,0.52-4.55-1.77-4.27c-1.44,0.18-1.7,0.67-2.86,1.31c1.01,0.13,2.02,0.26,3.03,0.39
			c-0.11-0.1-0.23-0.19-0.34-0.29c-1.37-1.16-3.69-0.85-4.18,1.1c0.46-0.22,0.92-0.44,1.38-0.66c-1.39-0.26-2.61,0.37-3.08,1.75
			c-0.35,0.54-0.71,1.09-1.06,1.63c1.31,1.01,2.62,2.02,3.93,3.03c-0.42,0.11-0.84,0.22-1.25,0.33c-0.61-0.8-1.22-1.61-1.84-2.41
			c-0.01,0.14-5.25-1.03-5.26-1.04c0.41,0.72,0.83,1.44,1.24,2.16c0.55,0.11,1.09,0.21,1.64,0.32c0.37-1.39,0.74-2.79,1.1-4.18
			c-1.3,0.3-5.97,1.25-7.35,0.18c0.13,1.01,0.26,2.02,0.39,3.03c0.89-2.03,3.92-1.41,5.37-0.8c-0.2-1.52-0.4-3.05-0.6-4.57
			c-1.16,0.1-2.32,0.2-3.48,0.3c0.5,1.22,1,2.45,1.49,3.67c1.28-1.05,2.71-1.51,4.3-1.38c0.21-0.81,0.43-1.62,0.64-2.43
			c-1.59,0.6-3.15,0.52-4.69-0.24c0.37,1.39,0.74,2.79,1.1,4.18c1.16-1.68,2.66-2.07,4.49-1.19c-0.37-1.39-0.74-2.79-1.1-4.18
			c-0.65,0.16-1.01,0.57-1.09,1.23c-0.78,1.58-0.22,1.23,1.68-1.03c-0.21-0.81-0.43-1.62-0.64-2.43c-0.17,0.04-0.34,0.09-0.51,0.13
			c0.13-1.01,0.26-2.02,0.39-3.03c-0.19,0.18-0.38,0.35-0.57,0.53c0.81-0.21,1.62-0.43,2.43-0.64c-0.26,0.68-0.52,1.36-0.79,2.04
			c1.52-0.64,3.05-1.28,4.57-1.93c0.83,1.23,1.65,2.46,2.48,3.69c-1.01,0.13-2.02,0.26-3.03,0.39c0.05,0.1,0.1,0.19,0.15,0.29
			c1.52,0.64,3.05,1.28,4.57,1.93c-0.16-0.26-0.32-0.52-0.49-0.77c-0.21-0.81-0.43-1.62-0.64-2.43c-0.06,0.33-0.13,0.67-0.19,1
			c1.22-0.5,2.45-1,3.67-1.49c-0.14-0.16-0.28-0.32-0.42-0.48c-1.52,0.2-3.05,0.4-4.57,0.6c0.08-0.02,0.17-0.03,0.25-0.05
			c0.72-0.41,1.44-0.83,2.16-1.24c-0.27-0.03-0.55-0.05-0.82-0.08c0.8,0.61,1.61,1.22,2.41,1.84c0.17-0.94,0.33-1.88,0.5-2.82
			c-1.01,0.13-2.02,0.26-3.03,0.39c-0.22-0.43-0.44-0.86-0.66-1.3c1.22,0.94,2.45,1.88,3.67,2.82c0.79-0.46,1.58-0.92,2.37-1.38
			c-0.72-1.25-1.44-2.51-2.16-3.76c-0.05-0.01-0.09-0.01-0.14-0.02c0.83,0.83,1.67,1.67,2.5,2.5c0.09-0.18,0.18-0.35,0.27-0.53
			c-1.22-0.94-2.45-1.88-3.67-2.82c0.53-0.33,1.05-0.65,1.58-0.98c0.58,0.58,1.16,1.16,1.75,1.75c0.17,0.23,0.34,0.46,0.51,0.68
			c-0.8-0.61-1.61-1.22-2.41-1.84c0.08,0.21,0.16,0.41,0.23,0.62c0.21-0.81,0.43-1.62,0.64-2.43c-0.17,0.17-0.34,0.34-0.51,0.51
			c0.81-0.21,1.62-0.43,2.43-0.64c0.32,0.6,0.63,1.21,0.95,1.81c-0.8-0.61-1.61-1.22-2.41-1.84c0.32-0.53,0.64-1.05,0.96-1.58
			c0.81,0.21,1.62,0.43,2.43,0.64c-0.21,0.65-0.43,1.31-0.64,1.96c-0.83-0.83-1.67-1.67-2.5-2.5c0,0.15,0.01,0.3,0.01,0.45
			c0.41-0.72,0.83-1.44,1.24-2.16c0.31-0.03,0.63-0.06,0.94-0.09c0.58,0.58,1.16,1.16,1.75,1.75c0.39,0.01,0.78,0.03,1.17,0.04
			c-0.8-1.05-1.61-2.11-2.41-3.16c0.28,0.04,0.56,0.08,0.84,0.12c0.41,0.72,0.83,1.44,1.24,2.16c-0.5-1.22-1-2.45-1.5-3.67
			c0.81-0.21,1.62-0.43,2.43-0.64c0.55,0.45,1.1,0.9,1.65,1.34c0.78-0.33,1.49-0.76,2.14-1.28c0.91-0.65,1.55-1.24,2.37-2.05
			c-1.39-0.81-2.79-1.62-4.18-2.43c-0.57,1.58-0.41,2.97,0.63,4.32c1.25,1.62,3.94,1.66,4.57-0.6c0.84-3.03-0.34-7.7-4.34-7.56
			c-4.94,0.17-5.47,7.53-5.18,10.98c0.19,2.29,2.54,3.12,4.27,1.77c2.15-1.69,5.04-4.28,4.54-7.37c-0.41-2.6-3-4.15-5.48-4.01
			c-3.79,0.22-7.49,3.52-10.32,5.68c-3.5,2.68-6.58,5.62-8.81,9.43c-1.1,1.88,0.72,4.26,2.82,3.67c4.82-1.34,7.83-4.76,10.4-8.89
			c3.29-5.28,7.6-9.32,11.2-14.32C119.06,156.48,114.72,153.98,112.85,156.57L112.85,156.57z"/>
	</g>
</g>
<g>
	<g>
		<path class="st2" d="M202.1,377.73c-3.81-3.8-7.26-7.86-10.35-12.28c-0.87-1.24-2.78-1.8-3.93-0.51
			c-0.95,1.07-1.26,1.73-1.27,3.16c-0.04,3.25,4.77,3.18,5,0c0.11-1.53-0.27-2.18-1.24-3.31c-1.02-1.19-3.23-0.86-3.93,0.51
			c-0.49,0.96-0.7,1.59-0.65,2.67c0.14,2.79,4.08,3.43,4.91,0.66c0.91-3.01-0.29-5.53-3.54-5.74c0.83,0.83,1.67,1.67,2.5,2.5
			c0.09-1.31-0.22-2.06-1.21-2.89c-0.63-0.54-1.58-0.98-2.43-0.64c-1.46,0.58-2.14,1.08-2.55,2.66c-0.7,2.66,3.25,4.52,4.57,1.93
			c2.65-5.21-4.23-8.71-6.01-3.34c-0.87,2.65,3.39,4.53,4.57,1.93c1.96-4.35-2.25-8-5.9-4.4c-2.34,2.31,1.09,5.51,3.54,3.54
			c3.86-3.12,0.13-8.78-4.13-6.04c-2.7,1.73-0.2,6.05,2.52,4.32c1.65-1.05,2.08-1.55,2.57-3.45c0.4-1.57-0.76-3.17-2.41-3.16
			c-1.59,0-2.95,0.2-4.48,0.7c0.64,1.52,1.28,3.05,1.93,4.57c0.76-0.49,1.52-0.98,2.28-1.47c2-1.29,1.33-4.74-1.26-4.66
			c-1.36,0.04-2.12,0.14-3.45,0.44c0.64,1.52,1.28,3.05,1.93,4.57c0.79-0.61,1.59-1.21,2.38-1.82c1.56-1.19,1.72-4.05-0.6-4.57
			c-0.72-0.16-1.44-0.32-2.16-0.48c0.2,1.52,0.4,3.05,0.6,4.57c0.65-0.47,1.3-0.95,1.96-1.42c1.97-1.43,1.35-4.55-1.26-4.66
			c-1.1-0.05-2.2-0.09-3.31-0.14c0.42,1.55,0.84,3.11,1.26,4.66c0.55-0.27,1.1-0.54,1.66-0.81c2.38-1.17,1.02-4.52-1.26-4.66
			c-1.42-0.09-2.05,0.13-3.32,0.75c-2.41,1.16-1,4.51,1.26,4.66c0.62,0.04,1.23,0.08,1.85,0.12c-0.22-1.64-0.44-3.27-0.66-4.91
			c-1.58,0.55-2.72,1.22-3.95,2.34c-1.83,1.67,0.08,4.93,2.43,4.18c1.21-0.39,1.68-0.58,2.73-1.3c1.38-0.94,1.63-2.66,0.51-3.93
			c-0.84-0.95-1.41-1.25-2.62-1.6c0.2,1.52,0.4,3.05,0.6,4.57c0.54-0.41,1.09-0.82,1.63-1.23c1.99-1.5,1.33-4.44-1.26-4.66
			c-0.87-0.07-1.74-0.15-2.6-0.22c0.42,1.55,0.84,3.11,1.26,4.66c0.61-0.27,1.22-0.54,1.84-0.81c2.38-1.05,1.03-4.62-1.26-4.66
			c-1.36-0.02-2.05,0.07-3.38,0.33c0.44,1.61,0.89,3.21,1.33,4.82c0.83-0.3,1.66-0.61,2.49-0.91c2.5-0.91,2.33-5.03-0.66-4.91
			c-1.61,0.07-2.68,0.2-4.27,0.45c0.64,1.52,1.28,3.05,1.93,4.57c0.87-0.37,1.74-0.74,2.61-1.11c2.48-1.06,0.94-4.52-1.26-4.66
			c-0.61-0.04-1.22-0.08-1.83-0.11c0.59,1.42,1.18,2.85,1.77,4.27c0.27-0.11,0.54-0.22,0.81-0.34c2.79-0.78,2.1-4.74-0.66-4.91
			c-0.83-0.05-1.65-0.1-2.48-0.15c0.42,1.55,0.84,3.11,1.26,4.66c0.51-0.22,1.02-0.44,1.53-0.67c2.37-1.03,1.04-4.65-1.26-4.66
			c-1.54,0-2.17,0.08-3.68,0.42c0.44,1.61,0.89,3.21,1.33,4.82c0.95-0.32,1.9-0.63,2.85-0.95c3.03-1.01,1.81-5.66-1.33-4.82
			c-1.31,0.35-2.63,0.7-3.94,1.05c0.64,1.52,1.28,3.05,1.93,4.57c0.71-0.62,1.53-1.01,2.47-1.19c2.84-0.78,2.06-4.69-0.66-4.91
			c-0.88-0.07-1.76-0.15-2.65-0.22c0.42,1.55,0.84,3.11,1.26,4.66c0.61-0.3,1.21-0.61,1.82-0.91c2.29-1.15,1.11-4.63-1.26-4.66
			c-0.85-0.01-1.7-0.02-2.56-0.03c0.42,1.55,0.84,3.11,1.26,4.66c0.69-0.36,1.38-0.71,2.07-1.07c2.23-1.15,1.15-4.69-1.26-4.66
			c-0.8,0.01-1.6,0.02-2.41,0.03c0.22,1.64,0.44,3.27,0.66,4.91c0.66-0.25,1.32-0.5,1.99-0.76c2.63-1,2.24-4.7-0.66-4.91
			c-1.16-0.17-2.32-0.17-3.48-0.01c0.42,1.55,0.84,3.11,1.26,4.66c0.57-0.14,1.13-0.29,1.7-0.43c-0.44-1.61-0.89-3.21-1.33-4.82
			c-1.27,0.21-2.54,0.41-3.81,0.62c0.44,1.61,0.89,3.21,1.33,4.82c0.95-0.25,1.91-0.5,2.86-0.75c-0.64-1.52-1.28-3.05-1.93-4.57
			c-0.11,0.06-0.22,0.12-0.33,0.19c1.14,0.3,2.28,0.6,3.42,0.9c-0.09-0.14-0.19-0.28-0.28-0.42c-0.13,1.01-0.26,2.02-0.39,3.03
			c-1.25,1.01,1.64-0.42,2.17-0.96c1.59-1.64,0.35-4.1-1.77-4.27c-1.07-0.08-2.15-0.17-3.22-0.25c0.42,1.55,0.84,3.11,1.26,4.66
			c0.72-0.32,1.44-0.64,2.16-0.96c2.25-1,1.14-4.85-1.26-4.66c-1.5,0.12-3.01,0.24-4.51,0.36c0.22,1.64,0.44,3.27,0.66,4.91
			c0.86-0.34,1.72-0.68,2.58-1.02c2.55-1.01,2.3-4.77-0.66-4.91c-0.66-0.03-1.32-0.06-1.98-0.1c0.42,1.55,0.84,3.11,1.26,4.66
			c0.66-0.39,1.31-0.79,1.97-1.18c2.28-1.37,1.09-4.4-1.26-4.66c-1.05-0.12-2.11-0.23-3.16-0.35c0.42,1.55,0.84,3.11,1.26,4.66
			c0.93-0.43,1.87-0.87,2.8-1.3c2.38-1.11,1.03-4.58-1.26-4.66c-2.87-0.1-5.18,0.52-7.61,2.06c1.01,1.31,2.02,2.62,3.03,3.93
			c1.21-1.09,2.43-2.18,3.64-3.26c1.44-1.29,0.62-3.68-1.1-4.18c-1.14-0.33-1.71-0.41-2.9-0.42c0.42,1.55,0.84,3.11,1.26,4.66
			c0.58-0.3,1.16-0.6,1.74-0.89c2.27-1.17,1.12-4.63-1.26-4.66c-1.12-0.01-2.24-0.02-3.36-0.03c0.22,1.64,0.44,3.27,0.66,4.91
			c0.85-0.29,1.7-0.59,2.56-0.88c2.14-0.74,2.61-4.32,0-4.82c-0.41-0.08-0.83-0.16-1.24-0.24c0.37,1.39,0.74,2.79,1.1,4.18
			c0.31-0.33,0.61-0.67,0.92-1c1.59-1.73,0.33-3.99-1.77-4.27c-1.45-0.19-2.85-0.3-4.31-0.34c0.42,1.55,0.84,3.11,1.26,4.66
			c1.05-0.62,2.11-1.24,3.16-1.85c2.16-1.27,1.2-4.61-1.26-4.66c-0.89-0.02-1.77-0.03-2.66-0.05c0.42,1.55,0.84,3.11,1.26,4.66
			c0.54-0.25,1.07-0.51,1.61-0.76c2.53-1.2,0.88-4.37-1.26-4.66c-1.7-0.23-3.06-0.24-4.76-0.05c0.22,1.64,0.44,3.27,0.66,4.91
			c1.39-0.39,2.78-0.78,4.17-1.16c2.24-0.62,2.52-4.37,0-4.82c-1.12-0.2-1.89-0.3-3.03-0.31c0.22,1.64,0.44,3.27,0.66,4.91
			c0.69-0.21,1.38-0.43,2.07-0.64c2.81-0.87,2.08-4.64-0.66-4.91c-0.72-0.13-1.44-0.27-2.16-0.4c0,1.61,0,3.21,0,4.82
			c0.62-0.24,1.24-0.48,1.86-0.72c2.6-1.01,2.26-4.72-0.66-4.91c-1.41-0.09-2.82-0.18-4.23-0.27c0.22,1.64,0.44,3.27,0.66,4.91
			c0.75-0.24,1.51-0.48,2.26-0.72c2.75-0.88,2.13-4.7-0.66-4.91c-1.23-0.16-2.45-0.18-3.69-0.07c0,1.67,0,3.33,0,5
			c1.86-0.25,3.73-0.49,5.59-0.74c2.48-0.33,3.74-4.42,0.66-4.91c-1.97-0.31-3.78-0.47-5.78-0.4c0.22,1.64,0.44,3.27,0.66,4.91
			c1.06-0.33,2.13-0.66,3.19-1c2.23-0.69,2.53-4.28,0-4.82c-1.68-0.36-2.26-0.44-3.97-0.42c0.22,1.64,0.44,3.27,0.66,4.91
			c0.77-0.24,1.53-0.49,2.3-0.73c2.39-0.76,2.36-4.05,0-4.82c-1.54-0.5-2.97-0.75-4.58-0.89c0.22,1.64,0.44,3.27,0.66,4.91
			c0.78-0.17,1.55-0.34,2.33-0.52c2.9-0.64,2.01-4.71-0.66-4.91c-1.18-0.15-2.37-0.18-3.55-0.09c-2.77,0.07-3.45,4.17-0.66,4.91
			c0.54,0.14,1.07,0.28,1.61,0.43c0-1.61,0-3.21,0-4.82c-1.66,0.52-1.94,0.61-3.36,1.63c-1.97,1.41-1.35,4.57,1.26,4.66
			c0.24,0.09,0.47,0.17,0.71,0.26c0.69,0.43,1.85,0.51,2.52,0c1.29-0.96,1.78-1.34,2.45-2.82c0.69-1.51,0.15-3.12-1.49-3.67
			c-0.53-0.18-1.06-0.36-1.59-0.53c0.2,1.52,0.4,3.05,0.6,4.57c0.72-0.37,1.43-0.74,2.15-1.11c2.42-1.25,0.98-4.42-1.26-4.66
			c-1.33-0.14-2.66-0.29-3.99-0.43c0.22,1.64,0.44,3.27,0.66,4.91c0.92-0.27,1.84-0.54,2.77-0.81c2.82-0.83,2.07-4.67-0.66-4.91
			c-1.13-0.16-2.27-0.2-3.42-0.13c0.22,1.64,0.44,3.27,0.66,4.91c0.93-0.17,1.85-0.35,2.78-0.52c3.02-0.57,1.88-4.6-0.66-4.91
			c-0.78-0.09-1.55-0.19-2.33-0.28c0.22,1.64,0.44,3.27,0.66,4.91c1.3-0.33,2.61-0.48,3.94-0.44c3.21-0.07,3.23-5,0-5
			c-0.61,0-1.22,0-1.83,0c0.22,1.64,0.44,3.27,0.66,4.91c0.49-0.07,0.99-0.14,1.48-0.21c3.05-0.44,1.84-4.59-0.66-4.91
			c-1.82-0.23-3.59-0.39-5.42-0.46c0.22,1.64,0.44,3.27,0.66,4.91c0.47-0.17,0.94-0.34,1.41-0.51c2.74-0.99,2.13-4.59-0.66-4.91
			c-0.99-0.17-1.98-0.22-2.98-0.16c0,1.67,0,3.33,0,5c2.03-0.03,4.06-0.06,6.09-0.09c-0.22-1.64-0.44-3.27-0.66-4.91
			c-3.77,0.77-10.17-9.08-11.69-11.91c-1.98-3.67-3.57-7.34-6.45-10.43c-1.96-2.11-5.3,0.59-3.93,3.03c1.17,2.07,2.33,4.13,3.5,6.2
			c1.14-1.14,2.28-2.28,3.42-3.42c-0.79-0.39-1.59-0.79-2.38-1.18c-2.87-1.42-5.26,2.58-2.52,4.32c4.34,2.75,6.83,6.38,8.63,11.12
			c1.16,3.04,2.31,5.46,5.09,7.3c1.41,0.94,3.2-0.05,3.67-1.49c1.61-4.92-1.21-8.97-4.11-12.78c-3.42-4.48-7.2-8.56-8.26-14.28
			c-1.39,0.81-2.79,1.62-4.18,2.43c4.04,3.17,7.03,7.09,9.73,11.43c1.25,2.01,2.44,4.05,3.65,6.08c0.82,1.38,3.48,4.45,3.45,6
			c0.41-0.72,0.83-1.44,1.24-2.16c0.33-1,0.52-2.02,0.59-3.08c-1.52,0.2-3.05,0.4-4.57,0.6c0.93,1.25,1.63,2.41,2.3,3.81
			c1.39,2.9,5.71,0.37,4.32-2.52c-0.68-1.4-1.37-2.56-2.3-3.81c-1.31-1.76-3.8-1.53-4.57,0.6c-1.12,3.1-0.53,7.46,2.77,9.07
			c2.33,1.14,5.18-0.15,5.23-2.86c0.04-1.78-1.3-3.38-2.15-4.82c-1.73-2.91-3.42-5.84-5.19-8.72c-3.03-4.94-6.36-9.56-10.96-13.16
			c-1.97-1.54-4.66-0.15-4.18,2.43c0.76,4.08,2.67,7.51,5.12,10.81c2.56,3.46,8.82,8.79,7.25,13.58c1.22-0.5,2.45-1,3.67-1.49
			c-3.19-2.11-3.92-8.1-6.08-11.22c-2.04-2.96-4.62-5.28-7.64-7.2c-0.84,1.44-1.68,2.88-2.52,4.32c0.79,0.39,1.59,0.79,2.38,1.18
			c2.19,1.09,4.7-1.15,3.42-3.42c-1.17-2.07-2.33-4.13-3.5-6.2c-1.31,1.01-2.62,2.02-3.93,3.03c4.35,4.67,6.02,11.1,10.34,15.89
			c3.64,4.04,6.57,8.97,12.67,7.73c2.78-0.57,2.12-4.95-0.66-4.91c-2.03,0.03-4.06,0.06-6.09,0.09c-3.21,0.05-3.22,5.02,0,5
			c1-0.07,1.99-0.01,2.98,0.16c-0.22-1.64-0.44-3.27-0.66-4.91c-0.47,0.17-0.94,0.34-1.41,0.51c-2.62,0.94-2.24,4.79,0.66,4.91
			c1.83,0.08,3.6,0.23,5.42,0.46c-0.22-1.64-0.44-3.27-0.66-4.91c-0.49,0.07-0.99,0.14-1.48,0.21c-2.84,0.41-2.08,4.91,0.66,4.91
			c0.61,0,1.22,0,1.83,0c0-1.67,0-3.33,0-5c-1.81,0.04-3.5,0.25-5.27,0.61c-3,0.62-1.9,4.6,0.66,4.91c0.78,0.09,1.55,0.19,2.33,0.28
			c-0.22-1.64-0.44-3.27-0.66-4.91c-0.93,0.17-1.85,0.35-2.78,0.52c-2.8,0.52-2.11,4.95,0.66,4.91c1.14-0.08,2.28-0.03,3.42,0.13
			c-0.22-1.64-0.44-3.27-0.66-4.91c-0.92,0.27-1.84,0.54-2.77,0.81c-2.85,0.84-2.04,4.62,0.66,4.91c1.33,0.14,2.66,0.29,3.99,0.43
			c-0.42-1.55-0.84-3.11-1.26-4.66c-0.72,0.37-1.43,0.74-2.15,1.11c-2.03,1.04-1.32,3.93,0.6,4.57c0.53,0.18,1.06,0.36,1.59,0.53
			c-0.5-1.22-1-2.45-1.49-3.67c-0.22,0.34-0.44,0.69-0.66,1.03c0.84,0,1.68,0,2.52,0c-1.19-0.75-1.83-0.9-3.23-0.95
			c0.42,1.55,0.84,3.11,1.26,4.66c0.72-0.37,1.44-0.75,2.16-1.12c2.3-0.72,2.45-4.17,0-4.82c-0.54-0.14-1.07-0.28-1.61-0.43
			c-0.22,1.64-0.44,3.27-0.66,4.91c1.19-0.09,2.37-0.06,3.55,0.09c-0.22-1.64-0.44-3.27-0.66-4.91c-0.78,0.17-1.55,0.34-2.33,0.52
			c-2.92,0.65-1.99,4.67,0.66,4.91c1.12,0.06,2.21,0.3,3.25,0.71c0-1.61,0-3.21,0-4.82c-0.77,0.24-1.53,0.49-2.3,0.73
			c-2.62,0.83-2.24,4.95,0.66,4.91c0.88,0.08,1.76,0.16,2.64,0.24c0-1.61,0-3.21,0-4.82c-1.06,0.33-2.13,0.66-3.19,1
			c-2.61,0.81-2.25,5.01,0.66,4.91c1.49-0.13,2.98-0.06,4.45,0.23c0.22-1.64,0.44-3.27,0.66-4.91c-1.86,0.25-3.73,0.49-5.59,0.74
			c-3.08,0.41-3.31,5.11,0,5c1.23-0.11,2.46-0.09,3.69,0.07c-0.22-1.64-0.44-3.27-0.66-4.91c-0.75,0.24-1.51,0.48-2.26,0.72
			c-2.74,0.87-2.15,4.73,0.66,4.91c1.41,0.09,2.82,0.18,4.23,0.27c-0.22-1.64-0.44-3.27-0.66-4.91c-0.62,0.24-1.24,0.48-1.86,0.72
			c-2.15,0.83-2.59,4.18,0,4.82c1.29,0.32,2.17,0.45,3.49,0.58c-0.22-1.64-0.44-3.27-0.66-4.91c-0.69,0.21-1.38,0.43-2.07,0.64
			c-2.66,0.83-2.22,4.9,0.66,4.91c0.57,0.04,1.13,0.08,1.7,0.13c0-1.61,0-3.21,0-4.82c-1.39,0.39-2.78,0.78-4.17,1.16
			c-2.61,0.73-2.22,5.24,0.66,4.91c1.7-0.19,3.07-0.18,4.76,0.05c-0.42-1.55-0.84-3.11-1.26-4.66c-0.54,0.25-1.07,0.51-1.61,0.76
			c-2.34,1.11-1.06,4.61,1.26,4.66c0.89,0.02,1.77,0.03,2.66,0.05c-0.42-1.55-0.84-3.11-1.26-4.66c-1.05,0.62-2.11,1.24-3.16,1.85
			c-2.17,1.28-1.19,4.59,1.26,4.66c1.46,0.04,2.86,0.15,4.31,0.34c-0.59-1.42-1.18-2.85-1.77-4.27c-0.31,0.33-0.61,0.67-0.92,1
			c-1.18,1.28-0.84,3.8,1.1,4.18c0.41,0.08,0.83,0.16,1.24,0.24c0-1.61,0-3.21,0-4.82c-0.85,0.29-1.7,0.59-2.56,0.88
			c-2.6,0.9-2.26,4.88,0.66,4.91c1.12,0.01,2.24,0.02,3.36,0.03c-0.42-1.55-0.84-3.11-1.26-4.66c-0.58,0.3-1.16,0.6-1.74,0.89
			c-2.27,1.16-1.12,4.64,1.26,4.66c0.52,0.08,1.05,0.16,1.57,0.24c-0.37-1.39-0.74-2.79-1.1-4.18c-1.21,1.09-2.43,2.18-3.64,3.26
			c-2.11,1.89,0.63,5.44,3.03,3.93c1.6-1.01,3.2-1.44,5.09-1.37c-0.42-1.55-0.84-3.11-1.26-4.66c-0.93,0.43-1.87,0.87-2.8,1.3
			c-2.5,1.16-0.91,4.42,1.26,4.66c1.05,0.12,2.11,0.23,3.16,0.35c-0.42-1.55-0.84-3.11-1.26-4.66c-0.66,0.39-1.31,0.79-1.97,1.18
			c-2.18,1.31-1.18,4.54,1.26,4.66c0.66,0.03,1.32,0.06,1.98,0.1c-0.22-1.64-0.44-3.27-0.66-4.91c-0.86,0.34-1.72,0.68-2.58,1.02
			c-2.39,0.95-2.39,5.16,0.66,4.91c1.5-0.12,3.01-0.24,4.51-0.36c-0.42-1.55-0.84-3.11-1.26-4.66c-0.72,0.32-1.44,0.64-2.16,0.96
			c-2.48,1.1-0.94,4.49,1.26,4.66c1.07,0.08,2.15,0.17,3.22,0.25c-0.59-1.42-1.18-2.85-1.77-4.27c0.1-0.11-1.78,0.64-2.17,0.96
			c-0.81,0.66-0.95,2.18-0.39,3.03c0.09,0.14,0.19,0.28,0.28,0.42c0.75,1.14,2.19,1.59,3.42,0.9c0.11-0.06,0.22-0.12,0.33-0.19
			c2.48-1.4,0.81-5.29-1.93-4.57c-0.95,0.25-1.91,0.5-2.86,0.75c-3.18,0.84-1.78,5.32,1.33,4.82c1.27-0.21,2.54-0.41,3.81-0.62
			c3.2-0.52,1.79-5.25-1.33-4.82c-1.3,0.18-1.71,0.37-2.9,0.94c-2.22,1.06-1.16,4.82,1.26,4.66c1.16-0.16,2.32-0.16,3.48,0.01
			c-0.22-1.64-0.44-3.27-0.66-4.91c-0.66,0.25-1.32,0.5-1.99,0.76c-2.5,0.95-2.34,4.95,0.66,4.91c0.8-0.01,1.6-0.02,2.41-0.03
			c-0.42-1.55-0.84-3.11-1.26-4.66c-0.69,0.36-1.38,0.71-2.07,1.07c-2.27,1.17-1.12,4.63,1.26,4.66c0.85,0.01,1.7,0.02,2.56,0.03
			c-0.42-1.55-0.84-3.11-1.26-4.66c-0.61,0.3-1.21,0.61-1.82,0.91c-2.4,1.21-1,4.47,1.26,4.66c0.88,0.07,1.76,0.15,2.65,0.22
			c-0.22-1.64-0.44-3.27-0.66-4.91c-1.38,0.38-2.49,0.87-3.67,1.69c-2.25,1.56-0.94,5.33,1.93,4.57c1.31-0.35,2.63-0.7,3.94-1.05
			c-0.44-1.61-0.89-3.21-1.33-4.82c-0.95,0.32-1.9,0.63-2.85,0.95c-3.05,1.02-1.83,5.53,1.33,4.82c0.78-0.08,1.57-0.16,2.35-0.24
			c-0.42-1.55-0.84-3.11-1.26-4.66c-0.51,0.22-1.02,0.44-1.53,0.67c-2.46,1.07-0.96,4.52,1.26,4.66c0.83,0.05,1.65,0.1,2.48,0.15
			c-0.22-1.64-0.44-3.27-0.66-4.91c-1.33,0.37-1.94,0.77-3.01,1.62c-1.84,1.46-0.17,4.15,1.77,4.27c0.61,0.04,1.22,0.08,1.83,0.11
			c-0.42-1.55-0.84-3.11-1.26-4.66c-0.87,0.37-1.74,0.74-2.61,1.11c-2.81,1.2-0.62,4.98,1.93,4.57c0.98-0.09,1.96-0.18,2.94-0.27
			c-0.22-1.64-0.44-3.27-0.66-4.91c-0.83,0.3-1.66,0.61-2.49,0.91c-3.02,1.1-1.85,5.44,1.33,4.82c0.68-0.05,1.37-0.1,2.05-0.15
			c-0.42-1.55-0.84-3.11-1.26-4.66c-0.61,0.27-1.22,0.54-1.84,0.81c-2.49,1.1-0.92,4.48,1.26,4.66c0.87,0.07,1.74,0.15,2.6,0.22
			c-0.42-1.55-0.84-3.11-1.26-4.66c-0.54,0.41-1.09,0.82-1.63,1.23c-1.66,1.25-1.63,3.92,0.6,4.57c0.14,0.11,0.28,0.21,0.41,0.32
			c0.17-1.31,0.34-2.62,0.51-3.93c-0.51,0.26-1.03,0.53-1.54,0.79c0.81,1.39,1.62,2.79,2.43,4.18c0.58-0.35,1.16-0.7,1.74-1.05
			c2.68-0.94,2.19-4.72-0.66-4.91c-0.62-0.04-1.23-0.08-1.85-0.12c0.42,1.55,0.84,3.11,1.26,4.66c0.26-0.02,0.53-0.04,0.79-0.06
			c-0.42-1.55-0.84-3.11-1.26-4.66c-0.55,0.27-1.1,0.54-1.66,0.81c-2.35,1.15-1.05,4.56,1.26,4.66c1.1,0.05,2.2,0.09,3.31,0.14
			c-0.42-1.55-0.84-3.11-1.26-4.66c-0.65,0.47-1.3,0.95-1.96,1.42c-1.6,1.16-1.68,4.06,0.6,4.57c0.72,0.16,1.44,0.32,2.16,0.48
			c-0.2-1.52-0.4-3.05-0.6-4.57c-0.79,0.61-1.59,1.21-2.38,1.82c-2.18,1.66-1.01,5.22,1.93,4.57c0.71-0.09,1.41-0.17,2.12-0.26
			c-0.42-1.55-0.84-3.11-1.26-4.66c-0.76,0.49-1.52,0.98-2.28,1.47c-2.28,1.47-0.88,5.49,1.93,4.57c1-0.44,2.05-0.61,3.15-0.52
			c-0.8-1.05-1.61-2.11-2.41-3.16c-0.09,0.15-0.18,0.31-0.27,0.46c0.84,1.44,1.68,2.88,2.52,4.32c-0.64-0.6-1.28-1.21-1.93-1.81
			c1.18,1.18,2.36,2.36,3.54,3.54c0.06,0.02,0.11,0.04,0.17,0.05c-0.72-0.41-1.44-0.83-2.16-1.24c0.17,0.34,0.34,0.68,0.5,1.02
			c0-0.84,0-1.68,0-2.52c-0.16,0.34-0.31,0.69-0.47,1.03c1.52,0.64,3.05,1.28,4.57,1.93c-0.47,0.34-0.95,0.67-1.42,1.01
			c-0.58-0.58-1.16-1.16-1.75-1.75c0.01,0.08,0.03,0.15,0.04,0.23c1.52,0.64,3.05,1.28,4.57,1.93c0.06-0.22,0.12-0.44,0.17-0.66
			c-0.58,0.58-1.16,1.16-1.75,1.75c0.21-0.08,0.42-0.17,0.64-0.25c-0.81-0.21-1.62-0.43-2.43-0.64c-0.09-0.21-0.17-0.43-0.26-0.64
			c-0.1,1.41,1.23,2.42,2.5,2.5c0.28,0.02,0.56,0.04,0.84,0.06c-0.72-0.41-1.44-0.83-2.16-1.24c0.01,0.2,0.03,0.4,0.04,0.59
			c1.64,0.22,3.27,0.44,4.91,0.66c-0.01-0.05-0.02-0.1-0.04-0.15c-1.31,0.17-2.62,0.34-3.93,0.51c-0.07-0.07-0.15-0.15-0.22-0.22
			c1.67,0,3.33,0,5,0c-0.06,0.12-0.13,0.25-0.19,0.37c-1.31-0.17-2.62-0.34-3.93-0.51c3.34,4.76,7.02,9.18,11.13,13.29
			C200.84,383.55,204.38,380.01,202.1,377.73L202.1,377.73z"/>
	</g>
</g>
<g>
	<g>
		<path class="st2" d="M84.86,217.43c-4.81-5.31-13.01,0.51-12.98,6.77c0.03,6.06,10.56,4.68,12.1-0.21
			c1.89-6.01-6.83-8.65-9.17-3.14c-2.53,5.96,5.37,9.94,9.9,6.69c4.64-3.33,1.89-11.26-4.02-9.03c-5.25,1.99-3.36,9.37,2.09,9.12
			c5.54-0.25,5.45-8.12-0.29-7.94c-6.57,0.21-6.63,10.37-0.1,10.43c7.08,0.07,2.51-10.89-3.21-6.83c-5.66,4.02,2.16,12.03,7.3,6.51
			c0.99-1.06,1.04-3.24-0.51-3.93c-2.99-1.33-6.84,0.11-6.23,4c0.7,4.44,5.3,4.32,8.49,2.89c1.56-0.7,1.47-2.84,0.51-3.93
			c-2.13-2.41-6.1-1.05-6.1,2.29c0,3.58,4.45,5.72,7.53,4.54c1.12-0.43,1.74-1.22,1.84-2.41c0.27-3.3-3.66-5.36-6.09-2.9
			c-3.47,3.51,1.17,7.07,4.34,7.75c2.52,0.54,4.05-2.27,2.43-4.18c-5.15-6.06-11.81,2.69-6.19,5.18c2.18,0.96,4.6-0.29,5.03-2.65
			c0.66-3.62-3.07-4.94-5.89-4.99c-1.47-0.02-2.34,1.17-2.5,2.5c-0.65,5.25,6.72,6.33,10.48,6.44c2.28,0.07,3.14-2.72,1.77-4.27
			c-1.46-1.65-2.84-2.19-5.03-2.25c-1.01-0.03-2.22,0.79-2.41,1.84c-0.56,3.13,0.94,7.4,4.85,7.38c2.82-0.02,4.43-3.28,2.41-5.49
			c-2.02-2.2-5.34-0.63-5.79,2.02c-0.84,4.94,5.41,5.46,8.72,5.18c1.89-0.16,3.12-2,2.16-3.76c-1.8-3.32-6.12-4.76-7.99-0.58
			c-1.89,4.25,2.29,6.81,5.78,7.7c1.8,0.46,3.65-1.21,3.08-3.08c-0.6-1.97-1.65-3.16-3.75-3.47c-1.25-0.19-2.8,0.3-3.08,1.75
			c-0.65,3.36,1.49,7.35,5.49,6.68c3.83-0.64,4.93-5.14,3.01-8.06c-1.23-1.87-4.95-1.39-4.66,1.26c0.18,1.65,0.55,2.29,1.89,3.29
			c0.95,0.71,2.22,0.25,3.03-0.39c2.45-1.95,1.91-5.67-0.84-7.03c-1.34-0.66-3.33-0.19-3.67,1.49c-0.08,0.41-0.17,0.83-0.25,1.24
			c-0.56,2.77,2.98,4.35,4.57,1.93c3.53-5.4-3.1-11.28-6.87-5.69c1.44,0.84,2.88,1.68,4.32,2.52c4.18-8.33-8.46-9.81-6.77-2.54
			c0.54,2.32,3.37,2.16,4.57,0.6c3.19-4.14-0.66-8.58-5.28-7.47c1.05,0.8,2.11,1.61,3.16,2.41c-0.15-2.7-1.19-4.67-3.77-5.76
			c-1.23-0.52-2.69-0.4-3.42,0.9c-0.69,1.24-0.83,2-0.39,3.35c0.83,2.52,5.23,2.28,4.91-0.66c-0.41-3.78-3.86-5.7-4.43-9.2
			c-1.03,1.03-2.05,2.05-3.08,3.08c2.41,0.38,4.94,6.44,6.31,8.25c1.92,2.53,4.16,4.7,6.29,7.04c4.22,4.63,7.48,10.5,11.35,15.49
			c9.38,12.09,18.77,24.18,28.15,36.28c1.01-1.31,2.02-2.62,3.03-3.93c-17.1-9.63-20.19-32.17-35.89-43.58
			c-1.6-1.16-3.74,0.42-3.76,2.16c-0.06,3.87,1.55,6.81,3.91,9.79c3.46,4.36,6.82,8.67,9.86,13.35c2.74,4.22,5.37,8.52,8.3,12.62
			c2.95,4.13,7.41,8.02,8.91,12.93c1.22-0.94,2.45-1.88,3.67-2.82c-7.11-4.97-10.43-14.24-15.75-20.9
			c-6.68-8.35-11.97-16.98-17.25-26.27c-0.73-1.29-2.9-1.77-3.93-0.51c-4.13,5.11-0.34,9.9,4.22,13c2.67,1.81,5.17-2.52,2.52-4.32
			c-1.23-0.83-4.84-3.13-3.21-5.14c-1.31-0.17-2.62-0.34-3.93-0.51c5.5,9.69,11.11,18.55,18.03,27.28
			c5.72,7.21,9.01,16.26,16.76,21.68c1.81,1.26,4.28-0.83,3.67-2.82c-1.09-3.58-3.22-6.27-5.56-9.13c-3.4-4.16-6.37-8.6-9.27-13.12
			c-2.56-3.99-5.07-8-7.88-11.82c-2.88-3.91-8.16-8.1-8.08-13.29c-1.25,0.72-2.51,1.44-3.76,2.16
			c15.71,11.41,18.42,33.74,35.89,43.58c2.64,1.49,4.69-1.79,3.03-3.93c-10.2-13.14-20.41-26.28-30.6-39.43
			c-4.1-5.29-7.44-10.56-11.98-15.52c-2.55-2.78-4.45-5.8-6.41-8.99c-1.37-2.24-2.6-3.97-5.33-4.4c-1.99-0.31-3.4,1.08-3.08,3.08
			c0.5,3.08,3.94,4.99,4.25,7.87c1.64-0.22,3.27-0.44,4.91-0.66c-0.04,0.17-0.08,0.34-0.11,0.51c-1.14,0.3-2.28,0.6-3.42,0.9
			c0.43,0.48,0.86,0.96,1.29,1.44c0.09,1.65,1.52,2.8,3.16,2.41c-0.12,0.04-0.24,0.08-0.36,0.12c1.52,0.2,3.05,0.4,4.57,0.6
			c-0.79,0.45-1.58,0.9-2.37,1.35c-1.45,2.89,2.51,5.2,4.32,2.52c-0.59,0.22-1.18,0.43-1.77,0.65c1.52,0.64,3.05,1.28,4.57,1.93
			c0.08-0.41,0.17-0.83,0.25-1.24c-1.22,0.5-2.45,1-3.67,1.49c-0.06-0.27-0.11-0.55-0.17-0.82c1.01-0.13,2.02-0.26,3.03-0.39
			c-0.19-0.14-0.38-0.28-0.57-0.43c0.41,0.72,0.83,1.44,1.24,2.16c-0.03-0.24-0.05-0.47-0.08-0.71c-1.55,0.42-3.11,0.84-4.66,1.26
			c0.21,0.06,0.43,0.12,0.64,0.18c-1.03,0.58-2.05,1.16-3.08,1.75c0.09-0.01,0.17-0.01,0.26-0.02c1.03-1.03,2.05-2.05,3.08-3.08
			c-1.14-0.48-2.28-0.41-3.44,0.22c0.72-1.25,1.44-2.51,2.16-3.76c-1.55-0.12-2.93,0.34-4.12,1.38c-0.84,0-1.68,0-2.52,0
			c-0.1-0.12-0.19-0.24-0.29-0.36c0.21-0.81,0.43-1.62,0.64-2.43c-0.16,0.16-0.33,0.32-0.49,0.47c0.81-0.21,1.62-0.43,2.43-0.64
			c-0.34-0.4-0.68-0.79-1.02-1.19c-0.8,0.61-1.61,1.22-2.41,1.84c0.5,0.26,0.99,0.53,1.49,0.79c0.59-1.42,1.18-2.85,1.77-4.27
			c0.17,0-5.63-0.22-5.48-1.44c-0.83,0.83-1.67,1.67-2.5,2.5c0.27-0.29,0.54-0.59,0.8-0.88c0.72-0.41,1.44-0.83,2.16-1.24
			c0.18,1.04,0.36,2.07,0.55,3.11c0.81-1.39,1.62-2.79,2.43-4.18c-0.52-0.05-1.03-0.1-1.55-0.15c-0.72,0.41-1.44,0.83-2.16,1.24
			c-0.29-0.37-0.58-0.74-0.87-1.11c0.61-0.8,1.22-1.61,1.84-2.41c-1.31,0.22-2.52,0.72-3.63,1.52c0.17-1.31,0.34-2.62,0.51-3.93
			c-0.75,0.58-1.51,1.16-2.26,1.74c-0.17-1.31-0.34-2.62-0.51-3.93c-0.61,0.14-1.22,0.28-1.83,0.43c0.58-0.58,1.16-1.16,1.75-1.75
			c-7.05-0.44-9.02-1.25-5.89-2.41c1.4-0.67,2.86-1.19,4.37-1.56C83.49,223.36,87.02,219.81,84.86,217.43L84.86,217.43z"/>
	</g>
</g>
<g>
	<g>
		<path class="st2" d="M163.52,319.47c-1.92-2.22-4.62-3.76-7.52-4.21c-1.33-0.21-2.69,0.34-3.08,1.75
			c-0.33,1.19,0.4,2.86,1.75,3.08c2.16,0.34,3.89,1.27,5.31,2.93c0.88,1.02,2.63,0.91,3.54,0
			C164.53,321.99,164.4,320.49,163.52,319.47L163.52,319.47z"/>
	</g>
</g>
<g>
	<g>
		<path class="st2" d="M278,12.52c6.27-0.08,14.37,1.23,19.61,4.89c5.37,3.75,10.44,8.23,15.05,12.87c2.28,2.29,5.74-1.19,3.54-3.54
			c-5.08-5.4-9.82-11.63-16.74-14.71c-5.42-2.41-11.71-5.58-17.79-5.27c-4.48,0.23-9.92,2.95-10.55,7.87
			c-0.62,4.8,3.76,6.39,7.76,5.56c3.68-0.76,7.2-4.77,4.3-8.37c-3.04-3.78-8.98-0.26-9.62,3.79c-0.66,4.16,3.48,6.91,7.24,6.78
			c4.6-0.16,7.69-3.53,12.61-2.19c3.19,0.87,5.7,2.51,9.09,2.79c2.51,0.21,3.34-3.51,1.26-4.66c-3-1.66-6.1-3.01-9.43-3.87
			c-0.65-0.17-9.76-1.08-9.58-0.83c0,0.84,0,1.68,0,2.52c0.63-0.02,1.24-0.12,1.85-0.31c-1.03-1.03-2.05-2.05-3.08-3.08
			c-0.33,1.51-4.96,3.72-6.3,4.71c-1.93,1.43-3.85,2.89-5.67,4.45c-3.63,3.12-6.67,6.66-8.67,11.03c1.52,0.64,3.05,1.28,4.57,1.93
			c1.85-6.22,7.68-11.39,8.81-17.79c0.21-1.2-0.17-2.12-1.15-2.82c-5.37-3.83-10.53,6.65-12.25,9.88c-1.78,3.34-4.18,6.1-5.46,9.72
			c-1.66,4.69-2.7,9.67-3.99,14.47c-0.84,3.12,3.9,4.41,4.82,1.33c1.65-5.55,4.11-10.59,7.41-15.35c1.84-2.65-2.49-5.15-4.32-2.52
			c-3.54,5.1-6.14,10.59-7.92,16.54c1.61,0.44,3.21,0.89,4.82,1.33c1.5-5.6,2.35-12.31,5.3-17.37c0.76-1.3,8.45-14.14,9.05-13.71
			c-0.38-0.94-0.77-1.88-1.15-2.82c-0.61,3.44-3.45,7.13-5.15,10.14c-1.41,2.51-2.84,4.88-3.66,7.65c-0.79,2.65,3.37,4.55,4.57,1.93
			c2.56-5.6,7.02-9.55,11.86-13.19c2.94-2.2,8.44-4.32,9.29-8.2c0.42-1.91-1.16-3.5-3.08-3.08c-2.05,0.45-3.7,0.77-4.83,2.61
			c-0.43,0.69-0.51,1.84,0,2.52c1.76,2.35,3.56,2.01,6.36,2.16c5.15,0.28,9.94,1.86,14.43,4.34c0.42-1.55,0.84-3.11,1.26-4.66
			c-5.1-0.43-8.75-3.91-14.18-2.99c-1.15,0.19-2.2,0.55-3.3,0.93c-2.78,0.97-2.63,1.42-5.72,0.35c-6.69-2.31,2.1-4.77,5.09-4.34
			c4.92,0.71,11.13,3.22,15.37,5.78c5.01,3.02,8.93,8.33,12.9,12.55c1.18-1.18,2.36-2.36,3.54-3.54
			c-5.22-5.24-11.32-11.14-17.8-14.81c-5.77-3.27-13.85-4.5-20.4-4.41C274.79,7.56,274.78,12.56,278,12.52L278,12.52z"/>
	</g>
</g>
<g>
	<g>
		<path class="st2" d="M288.67,16.5c3.22,0,3.22-5,0-5C285.45,11.5,285.44,16.5,288.67,16.5L288.67,16.5z"/>
	</g>
</g>
<g>
	<g>
		<path class="st2" d="M256.93,30.41c-4.42,7.03-8.73,14.16-12.03,21.8c-2.11,4.9-6.47,13.2-3.91,18.54c0.82,1.7,3.46,1.55,4.32,0
			c1.9-3.45,3.27-7.05,4.5-10.78c1.31-3.96,2.41-10.57,5.87-13.23c-1.22-0.5-2.45-1-3.67-1.49c1.65,5.66-1.15,10.52-3.4,15.57
			c-1.54,3.46-2.88,7-3.93,10.64c-1.05,3.65-1.8,7.37-2.3,11.13c-0.64,4.79-0.26,9.84-1.49,14.52c1.52-0.2,3.05-0.4,4.57-0.6
			c-4.61-7.99,0.8-18.54,0.88-27.05c0.02-2.32-2.68-3.1-4.27-1.77c-4.09,3.41-5.5,7.76-5.77,12.96c-0.4,7.89-0.81,15.64-2.02,23.47
			c-0.49,3.15,4.33,4.5,4.82,1.33c0.91-5.83,1.59-11.69,1.93-17.58c0.35-6.09-0.59-12.33,4.57-16.64c-1.42-0.59-2.85-1.18-4.27-1.77
			c-0.09,9.74-5.55,20.29-0.19,29.57c1.07,1.85,4.02,1.48,4.57-0.6c1.14-4.33,0.88-8.77,1.35-13.19c0.58-5.4,1.76-10.72,3.5-15.86
			c2.82-8.32,8.92-16.32,6.26-25.47c-0.4-1.39-2.35-2.51-3.67-1.49c-7.38,5.66-7.87,18.04-12.17,25.81c1.44,0,2.88,0,4.32,0
			c-0.93-1.94,1.43-6.83,2.07-8.7c1.17-3.38,2.6-6.65,4.18-9.85c2.87-5.78,6.25-11.28,9.68-16.74
			C262.97,30.2,258.64,27.69,256.93,30.41L256.93,30.41z"/>
	</g>
</g>
<g>
	<g>
		<path class="st2" d="M239.31,91.5c-1.56,28.5,4.19,56.55,10.05,84.27c0.53,2.53,4.13,2.22,4.82,0
			c3.94-12.63-0.82-26.08-3.86-38.41c-3.48-14.1-6.55-28.28-5.23-42.88c-1.67,0-3.33,0-5,0c1.16,9.41,2.32,18.83,3.48,28.24
			c1.05-0.8,2.11-1.61,3.16-2.41c-3.7-1.44-3.99-6.39-4.85-9.61c-0.71-2.67-1.7-4.74-3.43-6.87c-1.48-1.82-4.15-0.18-4.27,1.77
			c-0.77,12.76-0.21,25.52,1.74,38.15c1.73,11.16,3.65,24.49,10.47,33.83c1.38,1.89,4.67,1.41,4.66-1.26
			c-0.05-9.67-3.81-19.03-6.35-28.25c-2.81-10.2-5.07-20.49-5.24-31.12c-1.64,0.22-3.27,0.44-4.91,0.66
			c1.94,10.15,4.49,20.15,7.74,29.96c3.08,9.33,4.84,18.05,5.89,27.84c0.91,8.47,3.14,15.61,7.32,23.01
			c2.45,4.35,4.91,8.7,7.47,12.99c1.73,2.89,3.45,5.37,6.45,7.04c2.03,1.13,4.04-0.73,3.67-2.82c-1.28-7.34-7.43-13.2-10.66-19.78
			c-3.69-7.53-7.85-18.39-5.51-26.75c-1.61,0-3.21,0-4.82,0c4.86,15.17,8.38,32.4,18.01,45.42c0.77,1.04,2.19,1.7,3.42,0.9
			c4.28-2.81,2.69-9.43,0.78-13.23c-3.34-6.65-11.34-11.31-11.92-19.16c-1.55,0.42-3.11,0.84-4.66,1.26
			c2.11,4.31,4.68,8.24,7.67,11.98c2.01,2.51,5.53-1.05,3.54-3.54c-2.73-3.42-4.97-7.04-6.89-10.96c-1.08-2.19-4.84-1.18-4.66,1.26
			c0.32,4.32,2.01,7.82,4.65,11.23c1.43,1.85,3.04,3.54,4.52,5.34c1.12,1.36,7.26,9.66,4.45,11.5c1.14,0.3,2.28,0.6,3.42,0.9
			c-9.36-12.67-12.77-29.45-17.5-44.23c-0.74-2.31-4.14-2.44-4.82,0c-2.29,8.2,0.67,17.76,3.72,25.42
			c1.53,3.82,3.36,7.52,5.53,11.02c2.58,4.15,6.05,7.79,6.92,12.74c1.22-0.94,2.45-1.88,3.67-2.82c-3.69-2.05-5.45-6.63-7.49-10.17
			c-2.12-3.68-4.34-7.33-6.32-11.09c-4.44-8.45-4.74-17.29-5.86-26.56c-1-8.27-3.89-15.86-6.36-23.76
			c-2.7-8.63-4.85-17.4-6.55-26.28c-0.53-2.8-4.95-2.11-4.91,0.66c0.15,9.81,1.96,19.4,4.45,28.86c2.6,9.9,7.09,20.18,7.14,30.51
			c1.55-0.42,3.11-0.84,4.66-1.26c-6.52-8.93-8.32-21.94-9.96-32.64c-1.88-12.18-2.31-24.53-1.56-36.82
			c-1.42,0.59-2.85,1.18-4.27,1.77c4.74,5.83,2.19,14.53,10.49,17.76c1.4,0.55,3.35-0.88,3.16-2.41
			c-1.16-9.41-2.32-18.83-3.48-28.24c-0.39-3.16-4.71-3.26-5,0c-1.18,13.09,1.07,25.99,4.07,38.69c3.06,12.94,9.33,28.03,5.2,41.27
			c1.61,0,3.21,0,4.82,0c-5.77-27.31-11.41-54.87-9.87-82.94C244.48,88.28,239.48,88.29,239.31,91.5L239.31,91.5z"/>
	</g>
</g>
<g>
	<g>
		<path class="st2" d="M273.9,209.55c-0.97-3.2-1.68-6.4-2.14-9.7c-1.22,0.94-2.45,1.88-3.67,2.82c4.29,2.6,6.76,7.2,10.88,10.03
			c0.74,0.51,5.33,3.54,5.91,1.79c0.06-0.17-2.32-2.83-2.49-3.08c-0.87-1.35-1.53-3.13-3.15-3.78c-2.63-1.06-4.6,0.94-4.95,3.4
			c-0.56,3.84,2.11,7.26,5.15,9.17c1.52,0.95,3.93-0.26,3.76-2.16c-0.22-2.49-1.39-5.88-4.44-6c-3.21-0.12-4.78,4.54-5.81,6.87
			c1.31-0.17,2.62-0.34,3.93-0.51c-0.62-0.69-1.25-1.39-1.87-2.08c-0.84-0.94-2.71-1.01-3.54,0c-0.29,0.35-0.58,0.71-0.87,1.06
			c1.01-0.13,2.02-0.26,3.03-0.39c-0.21-0.15-0.42-0.29-0.64-0.44c-1.15-0.79-2.73-0.17-3.42,0.9c-1.49,2.31,0.58,5.33,3.31,4.76
			c4.12-0.86,4.81-7.71,4.26-10.88c-0.44-2.54-4.18-2.21-4.82,0c-1.27,4.37-4,17.97,2.82,19.53c5.88,1.35,7.17-7.39,4.27-10.77
			c-1.27-1.48-3.67-0.58-4.18,1.1c-0.96,3.22-0.48,8.18,4.09,7.86c4.53-0.33,4.39-7.02,4.02-10.13c-0.27-2.32-3.29-3.57-4.66-1.26
			c-2.96,4.99-0.55,12.15,5.84,12.23c0.85,0.01,1.75-0.48,2.16-1.24c1.73-3.23,1.35-6.98,0.45-10.43c-0.55-2.12-3.47-2.4-4.57-0.6
			c-1.96,3.22-2.67,9.9,1.87,11.58c5.47,2.03,6.59-7.35,6.2-10.57c-1.64,0.22-3.27,0.44-4.91,0.66c1.68,5.4,2.67,12.26,5.42,17.17
			c1.69,3.02,4.48,2.35,7.08,0.72c8.14-5.08,4.17-13.92-3.01-17.27c-1.58-0.74-3.89,0.1-3.76,2.16c0.29,4.54,1.76,8.18,4.59,11.72
			c1.42,1.77,4.24,0.22,4.27-1.77c0.03-2.1-0.67-3.46-2.68-4.15c-0.79-0.27-1.89,0.01-2.43,0.64c-1.23,1.42-1.8,2.97-2.55,4.69
			c1.14-0.3,2.28-0.6,3.42-0.9c-0.4-0.21-0.85-1.38-1.64-1.74c-1.11-0.51-2.1-0.38-3.03,0.39c-2.21,1.82-3.62,4.89-5.46,7.08
			c-2.42,2.88-5.24,5.07-8.36,7.13c-5.18,3.42-9.38,7.3-12.74,12.55c1.55,0.42,3.11,0.84,4.66,1.26c-0.04-2.69-0.39-5.17-1.42-7.67
			c-0.53-1.29-2.16-2.95-2.44-4.24c-0.29-1.38-0.11-1.62,0.82-3.2c3.76-6.38,9.02-11.5,15.29-15.39c-1.14-1.14-2.28-2.28-3.42-3.42
			c-3.44,6-8.29,10.89-12.47,16.36c-1.86,2.44-5.9,6.86-2.56,9.73c0.95,0.81,1.92,0.86,3.03,0.39c3.89-1.64,6.66-6.39,9.56-9.31
			c4.18-4.19,8.83-7.78,13.85-10.91c1.74-1.09,1.58-4.07-0.6-4.57c-5.97-1.37-11.61,0.95-14.82,6.18c-1.69,2.75,2.63,5.26,4.32,2.52
			c2.01-3.27,5.4-4.75,9.17-3.88c-0.2-1.52-0.4-3.05-0.6-4.57c-4.38,2.73-8.53,5.79-12.34,9.28c-3.34,3.05-6.88,9.17-11.07,10.94
			c1.01,0.13,2.02,0.26,3.03,0.39c0.72,0.62,14.55-17.84,15.81-20.03c1.22-2.12-1.26-4.76-3.42-3.42
			c-6.53,4.05-12.1,9.32-16.24,15.82c-1.32,2.07-3.45,4.9-2.78,7.56c0.33,1.31,1.39,2.27,2.08,3.37c1.56,2.5,2.18,5.14,2.22,8.06
			c0.03,2.53,3.33,3.33,4.66,1.26c3.99-6.22,9.52-9.28,15.19-13.67c1.9-1.47,3.58-3.16,5.13-5c1.83-2.18,3.29-5.29,5.46-7.08
			c-1.01,0.13-2.02,0.26-3.03,0.39c0.16,0.08,1.02,1.42,1.64,1.74c1.09,0.57,2.86,0.39,3.42-0.9c0.51-1.27,1.09-2.49,1.77-3.68
			c-0.81,0.21-1.62,0.43-2.43,0.64c0.2,0.07,0.39,0.13,0.59,0.2c-0.58-0.58-1.16-1.16-1.75-1.75c0.06,0.29,0.11,0.58,0.17,0.87
			c1.42-0.59,2.85-1.18,4.27-1.77c-1.98-2.47-2.93-5.05-3.13-8.18c-1.25,0.72-2.51,1.44-3.76,2.16c2.58,1.2,7.23,3.48,4.2,7.67
			c-1.64,2.26-1.81,0.91-2.32-1.05c-1.12-4.34-2.69-8.61-4.02-12.89c-0.8-2.55-5.26-2.26-4.91,0.66c0.26,2.15,0.33,4.85-1.38,6.54
			c0.81-0.21,1.62-0.43,2.43-0.64c-0.97-1.58-0.91-3.04,0.19-4.38c-1.52-0.2-3.05-0.4-4.57-0.6c0.52,1.97,1.08,4.65,0.06,6.57
			c0.72-0.41,1.44-0.83,2.16-1.24c-2.38-0.67-2.89-2.24-1.52-4.71c-1.55-0.42-3.11-0.84-4.66-1.26c0.16,0.8,0.22,1.6,0.19,2.41
			c-0.26,1,0.24,1.4,1.53,1.2c-1.39,0.37-2.79,0.74-4.18,1.1c0.04,0.6,0.21,1.16,0.51,1.69c-0.31-1.52-0.47-3.06-0.48-4.61
			c-0.03-2.78,0.48-5.4,1.24-8.05c-1.61,0-3.21,0-4.82,0c0.3,1.21,0.13,2.33-0.51,3.36c-1.15,1.55-0.54,2.15,1.83,1.82
			c0,0.84,0,1.68,0,2.52c0.08-0.13,0.16-0.26,0.25-0.38c-1.14,0.3-2.28,0.6-3.42,0.9c0.21,0.15,0.42,0.29,0.64,0.44
			c0.83,0.57,2.37,0.41,3.03-0.39c0.29-0.35,0.58-0.71,0.87-1.06c-1.18,0-2.36,0-3.54,0c0.62,0.69,1.25,1.39,1.87,2.08
			c0.99,1.1,3.29,0.94,3.93-0.51c0.74-1.68,1.53-3.91,2.93-5.17c-0.81,0.21-1.62,0.43-2.43,0.64c0.15,0.38,0.29,0.76,0.44,1.13
			c1.25-0.72,2.51-1.44,3.76-2.16c-0.92-1.13-2.03-1.99-3.34-2.57c-1.33-1.02-1.64-1.03-0.92-0.04c0.12,0.87,1.09,1.74,1.63,2.45
			c1.16,1.51,2.63,3.41,4.43,4.21c2.5,1.12,5.12-0.02,5.31-2.9c0.29-4.2-4.05-6.29-6.93-8.24c-4.36-2.94-6.98-7.68-11.53-10.44
			c-2.06-1.25-3.96,0.81-3.67,2.82c0.47,3.31,1.17,6.51,2.14,9.7C270.01,213.95,274.84,212.64,273.9,209.55L273.9,209.55z"/>
	</g>
</g>
<g>
	<g>
		<path class="st2" d="M285.87,232.32c-1.35,4.18-5.79,6.96-8.98,9.69c-3.54,3.03-7.08,6.06-10.63,9.09
			c1.31,1.01,2.62,2.02,3.93,3.03c1.84-4.16,4.82-8.63,8.65-11.21c3.93-2.65,8.43-4.61,12.62-6.83c2.84-1.51,0.32-5.82-2.52-4.32
			c-4.73,2.51-10.07,4.68-14.28,8.03c-3.72,2.95-6.88,7.51-8.78,11.8c-1.14,2.57,1.68,4.95,3.93,3.03
			c4.43-3.79,8.86-7.57,13.28-11.36c3.28-2.81,6.25-5.42,7.61-9.62C291.69,230.58,286.86,229.27,285.87,232.32L285.87,232.32z"/>
	</g>
</g>
<g>
	<g>
		<path class="st2" d="M260.42,247.83c-5.93,8.18-10.79,17-14.45,26.42c-1.32,3.4-8.65,18.24-0.6,18.19
			c3.32-0.02,5.11-3.26,6.28-5.89c1.97-4.41,3.66-8.26,6.89-11.92c5.4-6.13,11.56-11.22,14.66-18.99c0.76-1.9-1.41-3.43-3.08-3.08
			c-3.64,0.78-5.64,4.83-7.67,7.61c-3.24,4.44-7.43,9.11-9.83,14.06c-0.14,0.28-1.96,3.32-0.47,3.41c0.23,0.01,1.57-3.15,1.74-3.49
			c1.31-2.62,2.61-5.23,3.92-7.85c2.38-4.76,4.77-9.46,7.97-13.73c-1.52-0.64-3.05-1.28-4.57-1.93c-1.47,6.92-3.6,13.56-6.54,20
			c-1.33,2.91,2.98,5.45,4.32,2.52c3.12-6.83,5.48-13.85,7.04-21.19c0.61-2.89-2.89-4.16-4.57-1.93
			c-4.17,5.56-7.06,11.89-10.15,18.09c-1.6,3.21-6.63,9.55-3.44,13.2c6.72,7.68,18.11-22.78,23.57-23.95
			c-1.03-1.03-2.05-2.05-3.08-3.08c-2.63,6.61-8.28,11.1-12.91,16.26c-1.98,2.21-3.9,4.56-5.35,7.16
			c-0.79,1.43-3.72,10.11-5.11,9.57c0.58,0.58,1.16,1.16,1.75,1.75c-0.73-1.83,1.65-6.72,2.27-8.57c1.31-3.92,2.85-7.76,4.61-11.49
			c3.1-6.57,6.85-12.76,11.11-18.64C266.63,247.75,262.3,245.25,260.42,247.83L260.42,247.83z"/>
	</g>
</g>
<g>
	<g>
		<path class="st2" d="M246.06,288.43c-7.74,14.49-9.09,30.82-8.65,46.97c0.09,3.21,5.07,3.23,5,0c-0.18-8.61-0.37-17.27,0.55-25.85
			c0.88-8.16,3.87-15.9,4.48-24.08c0.1-1.34-1.23-2.52-2.5-2.5c-5.28,0.07-5.94,5.57-7.26,9.68c-2.17,6.72-4.48,13.4-5.7,20.37
			c-2.14,12.22-3.86,27.44,1.76,38.96c0.96,1.96,4.06,1.4,4.57-0.6c1.83-7.16,1.29-14.37,1.67-21.67
			c0.41-7.98,1.76-15.95,2.78-23.87c0.41-3.18-4.6-3.15-5,0c-0.94,7.34-2.14,14.71-2.67,22.09c-0.54,7.42,0.27,14.84-1.6,22.12
			c1.52-0.2,3.05-0.4,4.57-0.6c-4.68-9.58-3.11-22.98-1.57-33.22c0.72-4.79,1.92-9.45,3.37-14.07c0.45-1.43,3.52-14.18,5.08-14.2
			c-0.83-0.83-1.67-1.67-2.5-2.5c-0.6,8.12-3.61,15.94-4.48,24.08c-0.91,8.59-0.73,17.23-0.55,25.85c1.67,0,3.33,0,5,0
			c-0.41-15.24,0.66-30.76,7.97-44.45C251.89,288.12,247.58,285.59,246.06,288.43L246.06,288.43z"/>
	</g>
</g>
<g>
	<g>
		<path class="st2" d="M239.67,333.69c-0.98,7.09,1.5,14.29,3.21,21.1c2.08,8.28,4.53,16.44,7.81,24.33
			c1.1,2.64,4.57,2.22,4.91-0.66c0.76-6.51-2.03-12.68-4.35-18.63c-2.29-5.89-4.93-11.56-8.66-16.69c-1.52-2.1-4.35-1.24-4.66,1.26
			c-0.64,5.14,0.21,9.75,2.31,14.45c1,2.23,4.88,1.15,4.66-1.26c-0.33-3.63-0.86-7.89-5.08-8.79c-4.29-0.92-6.64,3.74-6.33,7.38
			c0.44,5.24,4.83,9.82,6.89,14.51c2.19,4.98,4.4,9.42,8.93,12.63c1.82,1.29,4.25-0.84,3.67-2.82
			c-3.27-11.3-10.13-21.46-15.85-31.63c-1.6-2.85-5.66-0.35-4.32,2.52c3.04,6.49,7.2,12.14,12.47,17.01
			c1.7,1.57,5.08,0.06,4.18-2.43c-3.94-10.87-7.78-21.75-9.74-33.18c-0.54-3.17-5.36-1.82-4.82,1.33
			c1.21,7.16,3.19,14.04,5.94,20.75c1.21,2.94,6.05,1.65,4.82-1.33c-2.76-6.71-4.73-13.6-5.94-20.75c-1.61,0.44-3.21,0.89-4.82,1.33
			c1.96,11.43,5.8,22.32,9.74,33.18c1.39-0.81,2.79-1.62,4.18-2.43c-4.98-4.59-8.82-9.87-11.69-15.99
			c-1.44,0.84-2.88,1.68-4.32,2.52c5.49,9.77,12.21,19.6,15.34,30.44c1.22-0.94,2.45-1.88,3.67-2.82c-4.2-2.98-5.77-7.91-7.82-12.39
			c-0.92-2.01-1.99-3.86-3.18-5.72c-0.53-0.84-1.62-2.06-1.72-3.07c-0.78-0.76-0.75-1.23,0.09-1.39c0.79-0.6,1.03-0.22,0.7,1.16
			c1.55-0.42,3.11-0.84,4.66-1.26c-1.74-3.88-2.16-7.74-1.63-11.93c-1.55,0.42-3.11,0.84-4.66,1.26c3.48,4.78,6.01,9.99,8.15,15.49
			c2.14,5.49,4.87,11.3,4.17,17.3c1.64-0.22,3.27-0.44,4.91-0.66c-2.8-6.72-5.01-13.62-6.87-20.65c-1.77-6.7-5.12-15.17-4.15-22.12
			C244.93,331.87,240.11,330.51,239.67,333.69L239.67,333.69z"/>
	</g>
</g>
<g>
	<g>
		<path class="st2" d="M249,380.67c2.6,7.71,9.07,14.87,17.98,13.59c2.19-0.32,4.05-1.28,6.09-2.08c2.24-0.87,4.6-1.33,6.85-2.18
			c4.39-1.66,8.08-4.59,11.73-7.46c2.25-1.77-0.65-5.39-3.03-3.93c-4.99,3.06-11.45,5.76-17.4,4.32
			c-6.12-1.48-10.39-6.29-13.56-11.45c-1.01-1.64-3.3-1.59-4.32,0c-2.65,4.13-2.61,9.57,0.45,13.51c3.68,4.73,10.8,5.35,16.34,5.7
			c2.17,0.14,3.29-2.83,1.77-4.27c-5.59-5.3-13.89-7.89-17.71-14.88c-1.55-2.82-5.86-0.3-4.32,2.52
			c4.16,7.61,12.47,10.17,18.49,15.89c0.59-1.42,1.18-2.85,1.77-4.27c-6.11-0.39-18.04-3.01-12.47-11.69c-1.44,0-2.88,0-4.32,0
			c3.85,6.25,9.16,11.94,16.55,13.74c7.32,1.78,15.05-1.02,21.25-4.82c-1.01-1.31-2.02-2.62-3.03-3.93c-2.53,1.98-5.1,4-7.98,5.44
			c-2.79,1.39-5.84,1.85-8.71,3.01c-3.04,1.23-5.78,2.54-9.15,1.5c-4.47-1.38-7.05-5.43-8.46-9.62
			C252.8,376.31,247.97,377.61,249,380.67L249,380.67z"/>
	</g>
</g>
<g>
	<g>
		<path class="st2" d="M236.71,99.37c-0.56,3.23-0.19,5.88,1.48,8.74c0.9,1.54,3.46,1.71,4.32,0c1.5-3.02,1.18-5.93-1.31-8.31
			c-1.16-1.11-3.09-0.9-3.93,0.51c-2.47,4.17-2.52,8.36-0.48,12.69c0.58,1.23,2.33,1.52,3.42,0.9c2.75-1.57,3.32-5.17,0.82-7.28
			c-1.14-0.97-3.15-1.04-3.93,0.51c-1.76,3.52-5.78,8.16-2.05,11.92c2.27,2.28,5.74,1.57,7.33-1c-1.44-0.84-2.88-1.68-4.32-2.52
			c-1.98,3.87-3.22,13.27,3.78,12.47c-0.59-1.42-1.18-2.85-1.77-4.27c-5.47,6.85-2.34,13.57,4.54,17.45
			c-0.41-0.72-0.83-1.44-1.24-2.16c0.19,2.86-1.07,6.27-1.65,9.08c1.61,0,3.21,0,4.82,0c-0.47-3.02-2.32-4.84-4.46-6.86
			c-1.71-1.62-3.04-2.99-3.81-5.3c-0.27-0.91-0.49-1.83-0.66-2.76c0.29-1.61-0.32-2.6-1.83-2.99c0.53,3.17,5.35,1.82,4.82-1.33
			c-0.97-5.83-8.46-2.96-8.34,2.21c0.07,3.06,0.99,6.71,2.5,9.37c1.84,3.23,6.37,5.21,6.95,8.99c0.38,2.44,4.35,2.33,4.82,0
			c0.59-2.88,3.01-8.53,1.61-11.37c-0.54-1.09-1.4-1.27-2.37-1.87c-3.23-2-4.95-5.45-2.18-8.92c1.17-1.46,0.64-4.54-1.77-4.27
			c-0.7-1.77-0.52-3.42,0.54-4.95c1.46-2.86-2.61-5.28-4.32-2.52c1.17-1.88,2.37-3.88,3.36-5.87c-1.31,0.17-2.62,0.34-3.93,0.51
			c0.07-0.19,0.13-0.38,0.2-0.57c1.14,0.3,2.28,0.6,3.42,0.9c-1.31-2.78-1.02-5.11,0.48-7.64c-1.31,0.17-2.62,0.34-3.93,0.51
			c0.18,0.75,0.35,1.5,0.53,2.25c1.44,0,2.88,0,4.32,0c-1.06-1.46-1.38-3.09-0.97-4.89C242.08,97.55,237.26,96.2,236.71,99.37
			L236.71,99.37z"/>
	</g>
</g>
<g>
	<g>
		<path class="st2" d="M242.19,78.74c-3.06,5.67-3.84,11.79-4.13,18.14c-0.36,7.88-0.46,15.79-0.52,23.68
			c1.64-0.22,3.27-0.44,4.91-0.66c-4.6-16.52-3.76-33.67,2.3-49.71c-1.64-0.22-3.27-0.44-4.91-0.66c0.22,21.69-7.86,43.82,0.2,64.96
			c1.14,2.98,5.97,1.69,4.82-1.33c-7.87-20.63,0.19-42.44-0.03-63.63c-0.03-2.95-3.94-3.22-4.91-0.66
			c-6.36,16.83-7.12,35.04-2.3,52.36c0.76,2.72,4.89,2.17,4.91-0.66c0.05-6.75,0.17-13.5,0.39-20.24
			c0.22-6.55,0.38-13.15,3.57-19.05C248.03,78.43,243.72,75.9,242.19,78.74L242.19,78.74z"/>
	</g>
</g>
</svg>
