<?xml version="1.0" encoding="utf-8"?>
<!-- Generator: Adobe Illustrator 23.0.1, SVG Export Plug-In . SVG Version: 6.00 Build 0)  -->
<svg version="1.1" id="Layer_1" xmlns="http://www.w3.org/2000/svg" xmlns:xlink="http://www.w3.org/1999/xlink" x="0px" y="0px"
	 viewBox="0 0 400 400" style="enable-background:new 0 0 400 400;" xml:space="preserve">
<style type="text/css">
	.st0{fill:none;stroke:#010101;stroke-width:5;stroke-miterlimit:10;}
	.st1{fill:none;stroke:#010101;stroke-width:6;stroke-miterlimit:10;}
	.st2{fill:#010101;}
	.st3{fill:#FFFFFF;}
</style>
<path class="st0" d="M310.47,196.08c4,91.58-33.46,156.17-37.57,154.53c-14.93-5.94,6.17-45.04,10.6-61.29
	c1.23-4.53,16.85-63.75,14.57-81.83c-6.94-55.04-29.17-102.67-34.02-110.16c-29.17-45.07-11-63.89,1.29-64.91
	C274.17,31.69,306.47,104.36,310.47,196.08z"/>
<path class="st0" d="M260.64,3.97c50.13,0.74,75.95,93.84,75.95,199.82s-26.36,200.93-98.07,192.07c-53-6.54-122.12-50.23-156.35-89
	c-9.98-11.31-22.73-25.99-30.17-43.18c-7.66-17.71-9.84-37.93-8.14-49.58c5.45-37.34,12.63-59.25,30.93-82.59
	c20.17-25.73,52.23-51.94,73.4-73.73C202.02,2.39,228.95,3.5,260.64,3.97"/>
<path class="st1" d="M267.66,341.48c0,0,4.12,42.99,34.37,24.07"/>
<path class="st0" d="M252.62,40.32c0,0,14.64-27.47,62.3,16.76"/>
<ellipse class="st2" cx="162.85" cy="216.87" rx="93.74" ry="88.47"/>
<ellipse transform="matrix(0.1079 -0.9942 0.9942 0.1079 -80.3905 348.9047)" class="st3" cx="154.21" cy="219.24" rx="10.59" ry="49.18"/>
<circle class="st2" cx="197.06" cy="112.65" r="7.04"/>
<circle class="st2" cx="176.74" cy="107.89" r="7.04"/>
<circle class="st2" cx="158.03" cy="105.61" r="7.04"/>
<circle class="st2" cx="139.69" cy="107.89" r="7.04"/>
<circle class="st2" cx="122.57" cy="112.65" r="7.04"/>
<circle class="st2" cx="106.14" cy="122.3" r="7.04"/>
<circle class="st2" cx="91.1" cy="132.84" r="7.04"/>
<circle class="st2" cx="79.33" cy="148.88" r="7.04"/>
<circle class="st2" cx="70.23" cy="164.92" r="7.04"/>
<circle class="st2" cx="63.19" cy="181.13" r="7.04"/>
<circle class="st2" cx="158.03" cy="326.5" r="7.04"/>
<circle class="st2" cx="136.94" cy="324.44" r="7.04"/>
<circle class="st2" cx="118.3" cy="318.3" r="7.04"/>
<circle class="st2" cx="101.32" cy="308.65" r="7.04"/>
<circle class="st2" cx="87.24" cy="296.82" r="7.04"/>
<circle class="st2" cx="74.8" cy="284.25" r="7.04"/>
<circle class="st2" cx="64.29" cy="268.31" r="7.04"/>
<circle class="st2" cx="57.25" cy="249.79" r="7.04"/>
<circle class="st2" cx="53.68" cy="233.33" r="7.04"/>
<circle class="st2" cx="181.69" cy="324.44" r="7.04"/>
<circle class="st2" cx="204.1" cy="319.46" r="7.04"/>
<circle class="st2" cx="222.62" cy="312.42" r="7.04"/>
<circle class="st2" cx="240.36" cy="298.33" r="7.04"/>
<circle class="st2" cx="255.5" cy="280.85" r="7.04"/>
<circle class="st2" cx="267.66" cy="260.13" r="7.04"/>
<circle class="st2" cx="277.3" cy="220.11" r="7.04"/>
<circle class="st2" cx="274.7" cy="240.95" r="7.04"/>
<circle class="st2" cx="274.7" cy="199.28" r="7.04"/>
<circle class="st2" cx="270.26" cy="176.13" r="7.04"/>
<circle class="st2" cx="260.07" cy="157.88" r="7.04"/>
<circle class="st2" cx="58.05" cy="197.33" r="7.04"/>
<circle class="st2" cx="53.68" cy="216.87" r="7.04"/>
<circle class="st2" cx="217.25" cy="119.69" r="7.04"/>
<circle class="st2" cx="231.91" cy="129.34" r="7.04"/>
<circle class="st2" cx="245.99" cy="142.32" r="7.04"/>
<circle class="st0" cx="165.04" cy="216.04" r="123.64"/>
</svg>
